<?xml version="1.0" encoding="UTF-8"?>
<svg version="1.1" xmlns="http://www.w3.org/2000/svg" width="528" height="473">
<path d="M0 0 C12.63088681 -0.16033566 24.97439655 -0.12810368 37.4296875 2.11328125 C38.54085937 2.29632813 39.65203125 2.479375 40.796875 2.66796875 C68.93631493 7.93192864 94.08643399 21.69515352 116.4296875 39.11328125 C117.47125 39.9021875 118.5128125 40.69109375 119.5859375 41.50390625 C120.58625 42.2825 121.5865625 43.06109375 122.6171875 43.86328125 C123.51824219 44.559375 124.41929687 45.25546875 125.34765625 45.97265625 C127.4296875 48.11328125 127.4296875 48.11328125 128.58203125 50.48046875 C128.34171008 54.63371158 125.655487 56.75599074 122.8046875 59.48828125 C122.00224609 60.32552734 122.00224609 60.32552734 121.18359375 61.1796875 C117.22296448 65.08249737 117.22296448 65.08249737 113.8125 65.21484375 C110.95134716 63.89214686 109.17518977 62.32802321 106.9296875 60.11328125 C86.32400696 40.85277867 58.90351496 29.21875441 31.4296875 24.11328125 C30.45386719 23.90703125 29.47804687 23.70078125 28.47265625 23.48828125 C-6.91138357 16.81029733 -45.7300566 26.73395846 -75.62890625 46.09375 C-97.06612565 60.81226584 -112.24597379 77.81484993 -125.5703125 100.11328125 C-126.34181641 101.33337891 -126.34181641 101.33337891 -127.12890625 102.578125 C-145.87700802 133.92657701 -148.36165495 177.19173627 -139.8203125 212.11328125 C-139.10963497 214.79188706 -138.34373898 217.4522347 -137.5703125 220.11328125 C-137.38017578 220.80325195 -137.19003906 221.49322266 -136.99414062 222.20410156 C-131.39146971 242.29105451 -120.75408183 260.08539429 -107.5703125 276.11328125 C-106.81234375 277.05429687 -106.054375 277.9953125 -105.2734375 278.96484375 C-100.64678636 284.4188887 -95.51147354 288.72588258 -89.73461914 292.89208984 C-88.31511848 293.92395356 -86.93819185 295.01390372 -85.5703125 296.11328125 C-85.5703125 296.77328125 -85.5703125 297.43328125 -85.5703125 298.11328125 C-84.87808594 298.35691406 -84.18585938 298.60054688 -83.47265625 298.8515625 C-80.09648773 300.31926429 -77.17244575 302.25366383 -74.1328125 304.30078125 C-49.86776292 320.18004462 -22.6992957 327.57529063 6.2421875 327.42578125 C6.94113129 327.42462311 7.64007507 327.42346497 8.36019897 327.42227173 C18.99339979 327.38749243 29.08187879 326.74264248 39.4296875 324.11328125 C40.40679687 323.88511719 41.38390625 323.65695312 42.390625 323.421875 C65.99054441 317.50498976 88.19266998 306.22681043 106.4296875 290.11328125 C107.82457972 288.92467591 109.22029307 287.73703287 110.6171875 286.55078125 C111.5453125 285.74640625 112.4734375 284.94203125 113.4296875 284.11328125 C117.22216273 285.8692053 119.53546754 288.07787983 122.4296875 291.11328125 C123.3371875 291.95890625 124.2446875 292.80453125 125.1796875 293.67578125 C127.41633856 296.0988199 127.8292194 297.026092 128.4296875 300.11328125 C126.76953125 301.25260417 125.109375 302.39192708 123.44921875 303.53125 C121.29095986 305.15512812 121.29095986 305.15512812 119.0625 307.4921875 C94.90630373 331.5408636 56.10858913 348.57601954 22.2109375 348.58203125 C20.38218079 348.59345154 20.38218079 348.59345154 18.51647949 348.60510254 C15.95176218 348.61583563 13.3870014 348.61878458 10.82226562 348.61425781 C6.96667589 348.61329053 3.11311361 348.65489362 -0.7421875 348.69921875 C-15.71838848 348.77047605 -29.23188307 347.4933302 -43.5703125 343.11328125 C-44.77284668 342.76031982 -45.97538086 342.4073584 -47.21435547 342.04370117 C-54.64833273 339.78452959 -61.59205004 336.4964342 -68.5703125 333.11328125 C-70.25640625 332.32630859 -70.25640625 332.32630859 -71.9765625 331.5234375 C-85.4552555 325.07248646 -97.19881537 316.75841248 -108.5703125 307.11328125 C-109.49585938 306.40945313 -110.42140625 305.705625 -111.375 304.98046875 C-112.09945312 304.36429687 -112.82390625 303.748125 -113.5703125 303.11328125 C-113.5703125 302.45328125 -113.5703125 301.79328125 -113.5703125 301.11328125 C-114.43849609 300.74203125 -114.43849609 300.74203125 -115.32421875 300.36328125 C-138.99175142 287.19178481 -153.40997686 247.62343426 -160.5703125 223.11328125 C-164.70356668 208.00263947 -165.92264318 193.2575527 -165.88598633 177.67431641 C-165.882833 174.88143575 -165.9063502 172.08962519 -165.93164062 169.296875 C-165.97196869 157.60005892 -164.90589015 146.57094504 -162.5703125 135.11328125 C-162.35793945 134.05778076 -162.14556641 133.00228027 -161.92675781 131.91479492 C-154.17411664 95.54906204 -130.26288432 54.83534744 -98.5703125 34.11328125 C-97.9103125 34.11328125 -97.2503125 34.11328125 -96.5703125 34.11328125 C-96.5703125 33.45328125 -96.5703125 32.79328125 -96.5703125 32.11328125 C-85.86182911 23.33496894 -72.11072511 17.75799998 -59.5703125 12.11328125 C-58.54679687 11.64792969 -57.52328125 11.18257812 -56.46875 10.703125 C-38.41244488 3.13505102 -19.39472668 0.33476724 0 0 Z " fill="#303260" transform="translate(165.5703125,124.88671875)"/>
<path d="M0 0 C1.6875 1.328125 1.6875 1.328125 4.0625 3.640625 C4.0625 4.300625 4.0625 4.960625 4.0625 5.640625 C5.5475 6.135625 5.5475 6.135625 7.0625 6.640625 C7.0625 7.300625 7.0625 7.960625 7.0625 8.640625 C8.5475 9.135625 8.5475 9.135625 10.0625 9.640625 C22.16575149 25.56595591 23.02128605 47.95055626 20.77832031 67.06201172 C19.16307285 75.98484654 14.62634292 83.92311533 10.0625 91.640625 C9.4025 91.640625 8.7425 91.640625 8.0625 91.640625 C7.835625 92.1975 7.60875 92.754375 7.375 93.328125 C5.68699964 96.30222088 3.59573483 98.36071365 1.0625 100.640625 C0.4025 100.640625 -0.2575 100.640625 -0.9375 100.640625 C-0.9375 101.300625 -0.9375 101.960625 -0.9375 102.640625 C-1.9275 102.640625 -2.9175 102.640625 -3.9375 102.640625 C-3.9375 103.300625 -3.9375 103.960625 -3.9375 104.640625 C-20.91749122 112.55656397 -37.72505149 115.76950395 -56.0078125 109.60546875 C-69.05852539 104.51928866 -79.48938005 95.5298867 -85.9453125 82.9296875 C-90.26566344 72.96226368 -91.1180235 63.07891749 -91.125 52.328125 C-91.13724609 51.34650391 -91.14949219 50.36488281 -91.16210938 49.35351562 C-91.19007211 35.26961847 -87.37255192 19.58127031 -77.9375 8.640625 C-77.2775 8.640625 -76.6175 8.640625 -75.9375 8.640625 C-75.6075 7.650625 -75.2775 6.660625 -74.9375 5.640625 C-74.2775 5.640625 -73.6175 5.640625 -72.9375 5.640625 C-72.9375 4.980625 -72.9375 4.320625 -72.9375 3.640625 C-53.30288138 -14.30196186 -21.56557905 -15.13068853 0 0 Z " fill="#05B9DB" transform="translate(204.9375,249.359375)"/>
<path d="M0 0 C13.4113821 11.67449819 20.2574168 26.08292822 23.6875 43.3125 C24.0175 44.9625 24.3475 46.6125 24.6875 48.3125 C24.6875 58.2125 24.6875 68.1125 24.6875 78.3125 C-13.5925 78.3125 -51.8725 78.3125 -91.3125 78.3125 C-88.07602553 106.11454083 -88.07602553 106.11454083 -71.3125 127.3125 C-71.3125 127.9725 -71.3125 128.6325 -71.3125 129.3125 C-70.6525 129.56 -69.9925 129.8075 -69.3125 130.0625 C-64.90157552 131.9003852 -60.59800145 134.01467872 -56.44140625 136.375 C-44.7046813 141.54346603 -25.00046775 139.58769071 -13.3125 135.3125 C-12.46042969 135.02246094 -11.60835938 134.73242188 -10.73046875 134.43359375 C-3.17191263 131.65863997 3.53914118 127.52320911 10.125 122.9375 C12.6875 121.3125 12.6875 121.3125 15.6875 121.3125 C15.7455476 124.58325883 15.78111165 127.85388524 15.8125 131.125 C15.82925781 132.05376953 15.84601563 132.98253906 15.86328125 133.93945312 C15.86972656 134.83212891 15.87617187 135.72480469 15.8828125 136.64453125 C15.89328613 137.46671143 15.90375977 138.2888916 15.91455078 139.13598633 C15.6875 141.3125 15.6875 141.3125 13.6875 144.3125 C-7.96941703 158.51757461 -33.75671524 162.24021933 -59.00390625 158.06640625 C-68.2836713 155.95189072 -77.71902652 152.15758906 -85.3125 146.3125 C-85.3125 145.6525 -85.3125 144.9925 -85.3125 144.3125 C-86.1478125 143.9721875 -86.1478125 143.9721875 -87 143.625 C-96.6548095 138.14524326 -102.99474683 126.13911065 -107.3125 116.3125 C-107.59738281 115.67054688 -107.88226563 115.02859375 -108.17578125 114.3671875 C-118.16072593 89.89127183 -116.55617187 59.20181955 -106.9375 35 C-104.51539716 29.4722561 -101.61324381 24.35916356 -98.3125 19.3125 C-97.84328125 18.59449219 -97.3740625 17.87648437 -96.890625 17.13671875 C-95.76327618 15.48216857 -94.54641805 13.88917306 -93.3125 12.3125 C-92.6525 12.3125 -91.9925 12.3125 -91.3125 12.3125 C-91.065 11.69375 -90.8175 11.075 -90.5625 10.4375 C-89.08479238 7.92539704 -87.87294823 7.55142656 -85.3125 6.3125 C-84.9825 5.3225 -84.6525 4.3325 -84.3125 3.3125 C-82.7890625 1.92578125 -82.7890625 1.92578125 -80.9375 0.625 C-80.02871094 -0.03048828 -80.02871094 -0.03048828 -79.1015625 -0.69921875 C-77.3125 -1.6875 -77.3125 -1.6875 -74.3125 -1.6875 C-74.3125 -2.3475 -74.3125 -3.0075 -74.3125 -3.6875 C-50.75353125 -14.31409867 -21.70220796 -16.31014703 0 0 Z M-74.3125 21.3125 C-74.3125 21.9725 -74.3125 22.6325 -74.3125 23.3125 C-74.9725 23.3125 -75.6325 23.3125 -76.3125 23.3125 C-84.37087803 34.10993263 -90.3125 45.71307104 -90.3125 59.3125 C-59.6225 59.3125 -28.9325 59.3125 2.6875 59.3125 C2.6875 45.85212609 0.38980494 34.98659672 -6.3125 23.3125 C-6.9725 23.3125 -7.6325 23.3125 -8.3125 23.3125 C-8.57417969 22.71566406 -8.83585937 22.11882812 -9.10546875 21.50390625 C-10.38162679 19.18699796 -11.60253635 17.93164937 -13.625 16.25 C-14.19863281 15.76402344 -14.77226562 15.27804688 -15.36328125 14.77734375 C-31.69838169 2.50146666 -60.9600614 4.99285282 -74.3125 21.3125 Z " fill="#F1F1F1" transform="translate(503.3125,229.6875)"/>
<path d="M0 0 C0 7.26 0 14.52 0 22 C-6 21 -6 21 -9.8125 19.9375 C-18.56797581 17.7444776 -27.39323988 18.67711245 -35.234375 23.32421875 C-49.53345588 33.56472592 -54.85228472 49.37926135 -58 66 C-58.83381185 71.75860159 -59.16415263 77.35581868 -59.20532227 83.16992188 C-59.22017166 84.48840622 -59.22017166 84.48840622 -59.23532104 85.83352661 C-59.26667305 88.71190789 -59.29158842 91.59030561 -59.31640625 94.46875 C-59.33699855 96.47514248 -59.35799559 98.48153084 -59.37937927 100.48791504 C-59.43436505 105.74854177 -59.48387719 111.00920611 -59.53222656 116.26989746 C-59.58261396 121.64611121 -59.63820973 127.02227087 -59.69335938 132.3984375 C-59.80065327 142.93224701 -59.90167941 153.46610291 -60 164 C-67.26 164 -74.52 164 -82 164 C-82.02311703 142.89509595 -82.04097821 121.79019494 -82.05181217 100.6852808 C-82.05697554 90.88661837 -82.06401902 81.08796394 -82.07543945 71.28930664 C-82.08538503 62.75201345 -82.09185313 54.21472605 -82.09408849 45.67742723 C-82.09539582 41.15410072 -82.09848302 36.63079078 -82.10573006 32.10746956 C-82.11248829 27.85502068 -82.11461737 23.60259527 -82.11310768 19.35014153 C-82.1133841 17.78476713 -82.11539039 16.21939199 -82.11920547 14.65402222 C-82.12413967 12.52611907 -82.12299933 10.39830599 -82.12025452 8.270401 C-82.12117631 7.07667909 -82.1220981 5.88295717 -82.12304783 4.65306187 C-82 2 -82 2 -81 1 C-79.43827255 0.91314397 -77.87270656 0.89297781 -76.30859375 0.90234375 C-75.45837646 0.90484131 -74.60815918 0.90733887 -73.73217773 0.90991211 C-72.10131226 0.92356812 -72.10131226 0.92356812 -70.4375 0.9375 C-66.993125 0.958125 -63.54875 0.97875 -60 1 C-59.67 10.24 -59.34 19.48 -59 29 C-57.02 25.37 -55.04 21.74 -53 18 C-47.35135691 9.86595395 -47.35135691 9.86595395 -43 7 C-42.34 7 -41.68 7 -41 7 C-41 6.34 -41 5.68 -41 5 C-26.76398679 -2.27696953 -15.80928424 -3.16185685 0 0 Z " fill="#F1F1F2" transform="translate(374,221)"/>
<path d="M0 0 C7.40254177 -0.49350278 7.40254177 -0.49350278 10.04296875 1.6875 C12.09621301 4.11368883 13.83645694 6.58078438 15.5625 9.25 C18.75666999 14.1240668 22.00338525 18.95321576 25.3125 23.75 C26.00533081 24.75522705 26.00533081 24.75522705 26.7121582 25.78076172 C27.66091285 27.1570527 28.60988944 28.53319071 29.55908203 29.90917969 C31.00920465 32.01335625 32.45629332 34.11958568 33.90234375 36.2265625 C34.37953857 36.92168945 34.8567334 37.61681641 35.34838867 38.33300781 C36.24334704 39.63686286 37.13806547 40.94088264 38.0324707 42.24511719 C40.55973986 45.92451657 43.10796137 49.58860096 45.66894531 53.24462891 C46.60688934 54.58383896 46.60688934 54.58383896 47.56378174 55.95010376 C48.03773376 56.62656952 48.51168579 57.30303528 49 58 C49.01030746 57.28812027 49.02061493 56.57624054 49.03123474 55.8427887 C49.12904898 49.14717174 49.23154004 42.45164482 49.33933926 35.75618076 C49.3945988 32.3136426 49.44802347 28.871096 49.49731445 25.4284668 C49.55400801 21.47435474 49.61857495 17.52039056 49.68359375 13.56640625 C49.70866249 11.70394005 49.70866249 11.70394005 49.73423767 9.80384827 C49.75418289 8.66274094 49.77412811 7.52163361 49.79467773 6.34594727 C49.81022202 5.335569 49.8257663 4.32519073 49.84178162 3.28419495 C50 1 50 1 51 0 C54.5 -0.125 54.5 -0.125 58 0 C59.66165207 1.66165207 59.11959725 3.6651603 59.12442017 5.88401794 C59.11902725 6.93058311 59.11902725 6.93058311 59.11352539 7.99829102 C59.11367142 8.72995483 59.11381744 9.46161865 59.1139679 10.2154541 C59.11326867 12.64496784 59.10547585 15.07440583 59.09765625 17.50390625 C59.0957921 19.18399514 59.09436819 20.86408457 59.09336853 22.54417419 C59.08954307 26.97473643 59.07971256 31.4052661 59.06866455 35.83581543 C59.05845103 40.35342976 59.05387104 44.87104934 59.04882812 49.38867188 C59.03809031 58.25912893 59.02101356 67.12956176 59 76 C57.54780521 76.05078933 56.09510216 76.08720136 54.64233398 76.11743164 C53.83344223 76.13922989 53.02455048 76.16102814 52.19114685 76.18348694 C50 76 50 76 47.72265625 74.12109375 C47.17480469 73.23550781 46.62695312 72.34992188 46.0625 71.4375 C45.42183594 70.44363281 44.78117187 69.44976562 44.12109375 68.42578125 C43.78577637 67.87873535 43.45045898 67.33168945 43.10498047 66.76806641 C41.90214811 64.84342832 40.63417443 62.97513481 39.34765625 61.10546875 C31.71690316 49.96203881 31.71690316 49.96203881 30 45 C29.34 45 28.68 45 28 45 C26.51953125 42.9453125 26.51953125 42.9453125 24.8125 40.125 C21.91148747 35.42898597 18.87489859 30.88380733 15.67578125 26.38671875 C13.7350946 23.62271049 11.86970441 20.81238419 10 18 C9.98969254 18.71187973 9.97938507 19.42375946 9.96876526 20.1572113 C9.87095102 26.85282826 9.76845996 33.54835518 9.66066074 40.24381924 C9.6054012 43.6863574 9.55197653 47.128904 9.50268555 50.5715332 C9.44599199 54.52564526 9.38142505 58.47960944 9.31640625 62.43359375 C9.29133751 64.29605995 9.29133751 64.29605995 9.26576233 66.19615173 C9.24581711 67.33725906 9.22587189 68.47836639 9.20532227 69.65405273 C9.18977798 70.664431 9.1742337 71.67480927 9.15821838 72.71580505 C9 75 9 75 8 76 C6.1875 76.1328125 6.1875 76.1328125 4 76.125 C3.278125 76.12757812 2.55625 76.13015625 1.8125 76.1328125 C0 76 0 76 -1 75 C-1.09963795 72.7767159 -1.12799794 70.55022224 -1.12939453 68.32470703 C-1.13114685 67.6271228 -1.13289917 66.92953857 -1.13470459 66.21081543 C-1.13912384 63.89312285 -1.13618424 61.57550593 -1.1328125 59.2578125 C-1.13348567 57.65217067 -1.13445581 56.04652893 -1.13571167 54.44088745 C-1.13718887 51.06979404 -1.13503396 47.69872707 -1.13037109 44.32763672 C-1.12468294 40.00423125 -1.12794687 35.68088798 -1.13394356 31.35748482 C-1.1375564 28.03925101 -1.13640709 24.72103195 -1.13381577 21.4027977 C-1.13314803 19.80877551 -1.1339696 18.21475199 -1.13629532 16.62073135 C-1.13883266 14.39181218 -1.13496553 12.1629937 -1.12939453 9.93408203 C-1.12859894 8.66468781 -1.12780334 7.39529358 -1.12698364 6.08743286 C-1 3 -1 3 0 0 Z " fill="#E1E1E1" transform="translate(285,2)"/>
<path d="M0 0 C2.05078125 0.03255208 4.1015625 0.06510417 6.15234375 0.09765625 C9.41428743 6.29242373 11.92737318 12.57040987 14.27734375 19.16015625 C14.62410156 20.11470703 14.97085938 21.06925781 15.328125 22.05273438 C16.77958585 26.0817895 18.18505694 30.0742824 19.26953125 34.21875 C19.56085938 35.16878906 19.8521875 36.11882813 20.15234375 37.09765625 C21.14234375 37.59265625 21.14234375 37.59265625 22.15234375 38.09765625 C22.85306293 40.24103258 23.4628788 42.41443643 24.02734375 44.59765625 C25.36385939 49.57002201 26.93889237 54.21379499 29.13671875 58.87109375 C30.34179511 61.51299192 31.38358384 64.19107169 32.40234375 66.91015625 C32.7375 67.80347656 33.07265625 68.69679688 33.41796875 69.6171875 C34.15234375 72.09765625 34.15234375 72.09765625 34.15234375 76.09765625 C31.18234375 76.09765625 28.21234375 76.09765625 25.15234375 76.09765625 C23.81342814 72.80823259 22.48216672 69.51576516 21.15234375 66.22265625 C20.77078125 65.28550781 20.38921875 64.34835938 19.99609375 63.3828125 C19.4546875 62.03896484 19.4546875 62.03896484 18.90234375 60.66796875 C18.5671875 59.84055176 18.23203125 59.01313477 17.88671875 58.16064453 C17.15234375 56.09765625 17.15234375 56.09765625 17.15234375 54.09765625 C6.92234375 54.09765625 -3.30765625 54.09765625 -13.84765625 54.09765625 C-14.17765625 56.40765625 -14.50765625 58.71765625 -14.84765625 61.09765625 C-15.61981972 63.5758836 -16.45390926 66.03563685 -17.34765625 68.47265625 C-17.79109375 69.69726562 -18.23453125 70.921875 -18.69140625 72.18359375 C-19.84765625 75.09765625 -19.84765625 75.09765625 -20.84765625 76.09765625 C-22.36693663 76.16945589 -23.88933107 76.18157632 -25.41015625 76.16015625 C-26.64958984 76.14662109 -26.64958984 76.14662109 -27.9140625 76.1328125 C-28.87119141 76.11541016 -28.87119141 76.11541016 -29.84765625 76.09765625 C-28.90701876 70.97634501 -27.26391443 66.24761655 -25.53515625 61.34765625 C-25.23931641 60.49171875 -24.94347656 59.63578125 -24.63867188 58.75390625 C-23.18752842 54.61673702 -21.65473677 50.57233471 -19.8359375 46.58203125 C-17.68488873 41.8560766 -16.00440593 37.01494981 -14.34765625 32.09765625 C-12.39813331 26.31140094 -10.28817791 20.71633048 -7.75341797 15.16015625 C-6.52551817 12.36411919 -5.57904329 9.5080903 -4.66015625 6.59765625 C-2.61300141 0.1381079 -2.61300141 0.1381079 0 0 Z M1.15234375 14.09765625 C0.77722656 15.17402344 0.40210938 16.25039063 0.015625 17.359375 C-0.50082544 18.83480235 -1.01778927 20.31005004 -1.53515625 21.78515625 C-1.80408691 22.55230957 -2.07301758 23.31946289 -2.35009766 24.10986328 C-4.42249041 29.98306582 -6.63900326 35.78056234 -8.96484375 41.55859375 C-10.0118602 44.12189783 -10.0118602 44.12189783 -9.84765625 47.09765625 C-2.25765625 47.09765625 5.33234375 47.09765625 13.15234375 47.09765625 C14.33060195 43.56288164 13.93403956 42.85459099 12.60546875 39.4921875 C12.25484375 38.59048828 11.90421875 37.68878906 11.54296875 36.75976562 C11.1665625 35.81939453 10.79015625 34.87902344 10.40234375 33.91015625 C9.67829379 32.0625359 8.95433415 30.21488016 8.23046875 28.3671875 C7.87662109 27.47854004 7.52277344 26.58989258 7.15820312 25.67431641 C6.2282236 23.29203391 5.36552329 20.89470607 4.51171875 18.484375 C3.55753521 15.02380531 3.55753521 15.02380531 1.15234375 14.09765625 Z " fill="#DFDFE0" transform="translate(104.84765625,1.90234375)"/>
<path d="M0 0 C32.69811321 0 32.69811321 0 40.5625 7.3125 C45.15385256 13.55779801 45.70183902 20.48687077 45 28 C43.92209602 34.5421301 41.36388124 38.25478286 36.328125 42.4921875 C29.93297302 46.63401412 25.03054124 47.42033969 17.5625 47.1875 C14.736875 47.125625 11.91125 47.06375 9 47 C9 56.24 9 65.48 9 75 C5 77 5 77 0 76 C0 50.92 0 25.84 0 0 Z M9 9 C9 18.9 9 28.8 9 39 C22.35066233 39.90594178 22.35066233 39.90594178 33 34 C36.13320704 28.90607535 36.31167501 23.84146107 35.51953125 18.04296875 C34.64366774 14.59878369 33.71376429 12.61674778 30.98828125 10.26171875 C26.69400866 8.44858144 22.79060744 8.67966154 18.1875 8.8125 C15.155625 8.874375 12.12375 8.93625 9 9 Z " fill="#DADADB" transform="translate(209,2)"/>
<path d="M0 0 C1.56047445 0.00015913 3.12095416 0.00585397 4.68139648 0.01586914 C5.91115456 0.01799156 5.91115456 0.01799156 7.16575623 0.02015686 C9.79470406 0.0257725 12.42356797 0.0383276 15.05249023 0.05102539 C16.8304838 0.05603838 18.60847869 0.06060163 20.38647461 0.06469727 C24.75434569 0.07574701 29.12215371 0.09302208 33.48999023 0.11352539 C34.84438691 2.82231874 34.55500474 5.12285807 34.48999023 8.11352539 C31.67174831 9.52264635 29.31747742 9.22536092 26.16967773 9.21118164 C24.9128418 9.20795898 23.65600586 9.20473633 22.36108398 9.20141602 C21.04237305 9.19303711 19.72366211 9.1846582 18.36499023 9.17602539 C17.02514812 9.17101028 15.68530423 9.1664474 14.34545898 9.16235352 C11.06028367 9.15053634 7.77513142 9.1326004 4.48999023 9.11352539 C4.48999023 17.03352539 4.48999023 24.95352539 4.48999023 33.11352539 C13.06999023 33.11352539 21.64999023 33.11352539 30.48999023 33.11352539 C32.48999023 38.11352539 32.48999023 38.11352539 31.48999023 42.11352539 C22.57999023 42.11352539 13.66999023 42.11352539 4.48999023 42.11352539 C4.48999023 50.69352539 4.48999023 59.27352539 4.48999023 68.11352539 C6.64401367 68.10192383 8.79803711 68.09032227 11.01733398 68.07836914 C13.09570163 68.07057802 15.17406766 68.06450158 17.25244141 68.05859375 C18.70069096 68.05355438 20.1489354 68.04672286 21.59716797 68.03808594 C23.67473611 68.02600292 25.75223721 68.02029328 27.82983398 68.01586914 C29.08143311 68.01063232 30.33303223 68.00539551 31.62255859 68 C34.48999023 68.11352539 34.48999023 68.11352539 35.48999023 69.11352539 C35.61499023 72.11352539 35.61499023 72.11352539 35.48999023 75.11352539 C34.48999023 76.11352539 34.48999023 76.11352539 30.79638672 76.22705078 C29.15127731 76.22689163 27.50616292 76.22119528 25.86108398 76.21118164 C24.56473778 76.20905922 24.56473778 76.20905922 23.24220276 76.20689392 C20.47059731 76.20127778 17.69907143 76.18872258 14.92749023 76.17602539 C13.05314244 76.17101247 11.17879338 76.1664492 9.30444336 76.16235352 C4.6995948 76.15130311 0.09480602 76.13402769 -4.51000977 76.11352539 C-4.53313422 66.35201551 -4.55092538 56.59051209 -4.56182194 46.82898045 C-4.56705054 42.29678445 -4.57414777 37.76460712 -4.58544922 33.23242188 C-4.59627891 28.86229709 -4.60228677 24.49219031 -4.60488701 20.12205315 C-4.60674111 18.45101576 -4.61036144 16.77997942 -4.61573982 15.10894966 C-4.62295135 12.77654988 -4.62400066 10.44422546 -4.62353516 8.11181641 C-4.62713043 7.41410629 -4.63072571 6.71639618 -4.63442993 5.99754333 C-4.62171858 0.14948175 -4.62171858 0.14948175 0 0 Z " fill="#E5E5E5" transform="translate(367.510009765625,1.886474609375)"/>
<path d="M0 0 C1 1 1 1 1.09765625 3.06640625 C1.08605469 3.89011719 1.07445312 4.71382813 1.0625 5.5625 C1.05347656 6.38878906 1.04445312 7.21507812 1.03515625 8.06640625 C1.02355469 8.70449219 1.01195312 9.34257812 1 10 C-1.71108863 9.5215726 -4.11995142 8.95257735 -6.6875 7.9375 C-12.36001301 6.33207179 -18.30304255 6.1286396 -23.9375 8.0625 C-27.94730961 10.59931833 -28.80273982 12.43544556 -30 17 C-29.93654241 19.79213401 -29.53277564 22.23925351 -29 25 C-28.34 25 -27.68 25 -27 25 C-27 25.66 -27 26.32 -27 27 C-26.42113037 27.2889917 -25.84226074 27.5779834 -25.24584961 27.87573242 C-21.67234288 29.66462235 -18.11290033 31.47817703 -14.5625 33.3125 C-13.81162109 33.69083984 -13.06074219 34.06917969 -12.28710938 34.45898438 C-5.32797529 38.07626515 1.437006 43.31101801 4 51 C4.57870853 57.36579386 4.20759887 62.41640196 1 68 C0.01 68.33 -0.98 68.66 -2 69 C-2.495 70.485 -2.495 70.485 -3 72 C-4.70703125 73.1328125 -4.70703125 73.1328125 -6.8125 74.125 C-7.84310547 74.62386719 -7.84310547 74.62386719 -8.89453125 75.1328125 C-19.01534708 79.30131179 -29.04962468 76.44595752 -39 73 C-40 72 -40 72 -40.09765625 69.93359375 C-40.08605469 69.10988281 -40.07445312 68.28617187 -40.0625 67.4375 C-40.05347656 66.61121094 -40.04445312 65.78492187 -40.03515625 64.93359375 C-40.02355469 64.29550781 -40.01195312 63.65742187 -40 63 C-37.01746044 63.43860876 -34.93909944 64.03422366 -32.2890625 65.5234375 C-28.43763255 67.25246425 -25.70467171 67.36804952 -21.5 67.3125 C-19.59734375 67.30669922 -19.59734375 67.30669922 -17.65625 67.30078125 C-14.07108155 67.00584752 -11.29146211 66.43725544 -8 65 C-5.35790171 60.17529877 -5.99350785 56.20020946 -7 51 C-7.87204051 48.45095851 -8.28691591 47.38772894 -10.65234375 46.1015625 C-11.42707031 45.73804688 -12.20179688 45.37453125 -13 45 C-34.02608048 34.95305514 -34.02608048 34.95305514 -39 26 C-40.70022819 20.89931543 -40.69986523 16.12316426 -38.625 11.1875 C-37 8 -37 8 -35 5 C-34.34 5 -33.68 5 -33 5 C-32.67 4.01 -32.34 3.02 -32 2 C-22.21941845 -3.58090436 -10.46799725 -3.42222987 0 0 Z " fill="#DBDADC" transform="translate(189,3)"/>
<path d="M0 0 C1.46657043 -0.00472824 1.46657043 -0.00472824 2.96276855 -0.009552 C4.0262854 -0.00752777 5.08980225 -0.00550354 6.18554688 -0.00341797 C7.81127625 -0.00485306 7.81127625 -0.00485306 9.46984863 -0.00631714 C11.76652077 -0.00699912 14.06319482 -0.00514358 16.35986328 -0.00097656 C19.88904115 0.00437141 23.41809174 -0.00092097 26.94726562 -0.00732422 C29.17252632 -0.00666344 31.39778694 -0.00538228 33.62304688 -0.00341797 C34.68656372 -0.0054422 35.75008057 -0.00746643 36.8458252 -0.009552 C37.82353882 -0.00639984 38.80125244 -0.00324768 39.80859375 0 C40.67383667 0.00079559 41.53907959 0.00159119 42.43054199 0.00241089 C44.40429688 0.12939453 44.40429688 0.12939453 45.40429688 1.12939453 C45.44522625 3.46236886 45.44671411 5.79644678 45.40429688 8.12939453 C43.05577159 9.30365717 41.66655622 9.24447626 39.05273438 9.22705078 C37.7765625 9.2222168 37.7765625 9.2222168 36.47460938 9.21728516 C35.58515625 9.20890625 34.69570313 9.20052734 33.77929688 9.19189453 C32.43351562 9.18512695 32.43351562 9.18512695 31.06054688 9.17822266 C28.84173039 9.16642044 26.62304669 9.14995609 24.40429688 9.12939453 C24.40651749 9.95402695 24.4087381 10.77865936 24.411026 11.62828064 C24.43102739 19.3833771 24.44627022 27.13846114 24.45610905 34.89357662 C24.46133724 38.88096653 24.46843372 42.86833521 24.47973633 46.85571289 C24.49056749 50.70064568 24.49657419 54.54555798 24.49917412 58.39050484 C24.50102795 59.86058436 24.50464778 61.33066271 24.51002693 62.80073357 C24.51724043 64.85293921 24.51828769 66.9050592 24.51782227 68.95727539 C24.52004288 70.12753769 24.52226349 71.29779999 24.52455139 72.50352478 C24.40429688 75.12939453 24.40429688 75.12939453 23.40429688 76.12939453 C20.73370836 76.27054614 18.0799745 76.1718656 15.40429688 76.12939453 C14.00912557 73.33905192 14.28474525 71.05713481 14.29077148 67.93554688 C14.29084702 66.63434906 14.29092255 65.33315125 14.29100037 63.99252319 C14.29610741 62.56679242 14.30132341 61.14106204 14.30664062 59.71533203 C14.3085054 58.26087492 14.30992902 56.80641719 14.31092834 55.35195923 C14.31474882 51.52146677 14.32457511 47.69101216 14.33563232 43.86053467 C14.34585653 39.952764 14.35042813 36.04498722 14.35546875 32.13720703 C14.36619779 24.46791894 14.38326859 16.79866203 14.40429688 9.12939453 C13.8392041 9.14510498 13.27411133 9.16081543 12.69189453 9.17700195 C10.13779665 9.23926499 7.58385816 9.27835589 5.02929688 9.31689453 C4.13984375 9.34203125 3.25039063 9.36716797 2.33398438 9.39306641 C1.0578125 9.40756836 1.0578125 9.40756836 -0.24414062 9.42236328 C-1.42242432 9.44592896 -1.42242432 9.44592896 -2.62451172 9.4699707 C-3.27500488 9.35758057 -3.92549805 9.24519043 -4.59570312 9.12939453 C-6.59570312 6.12939453 -6.59570312 6.12939453 -6.28320312 3.50439453 C-5.12928017 -0.48188475 -3.91308934 0.0035981 0 0 Z " fill="#F0EFEF" transform="translate(416.595703125,1.87060546875)"/>
<path d="M0 0 C2.31 0 4.62 0 7 0 C7 24.09 7 48.18 7 73 C4.03 73 1.06 73 -2 73 C-4 70 -4 70 -3.625 66.8125 C-3.41875 65.884375 -3.2125 64.95625 -3 64 C-1.02 63.505 -1.02 63.505 1 63 C0.83734146 62.13196747 0.67468292 61.26393494 0.50709534 60.36959839 C0.03114156 57.20693258 -0.12062219 54.2799864 -0.11352539 51.08642578 C-0.11344986 49.94569611 -0.11337433 48.80496643 -0.11329651 47.62966919 C-0.10555458 45.80591263 -0.10555458 45.80591263 -0.09765625 43.9453125 C-0.09553383 42.06028519 -0.09553383 42.06028519 -0.09336853 40.13717651 C-0.08873074 36.8130806 -0.0797618 33.48905458 -0.06866455 30.16497803 C-0.05839401 26.76624146 -0.05385887 23.36749765 -0.04882812 19.96875 C-0.03781699 13.31248083 -0.02109222 6.65624445 0 0 Z " fill="#F9F9F8" transform="translate(336,4)"/>
<path d="M0 0 C4.60139641 1.48868707 7.50227094 3.74629855 11 7 C11 7.66 11 8.32 11 9 C11.99 9.33 12.98 9.66 14 10 C14 10.66 14 11.32 14 12 C14.99 12.33 15.98 12.66 17 13 C29.10325149 28.92533091 29.95878605 51.30993126 27.71582031 70.42138672 C26.10057285 79.34422154 21.56384292 87.28249033 17 95 C16.34 95 15.68 95 15 95 C14.773125 95.556875 14.54625 96.11375 14.3125 96.6875 C12.62449964 99.66159588 10.53323483 101.72008865 8 104 C7.34 104 6.68 104 6 104 C6 104.66 6 105.32 6 106 C5.01 106 4.02 106 3 106 C3 106.66 3 107.32 3 108 C-12.70294118 115.32058824 -12.70294118 115.32058824 -22 115 C-22 114.01 -22 113.02 -22 112 C-18.99179673 110.63263488 -16.55655872 109.9408745 -13.25 109.5 C-12.1775 109.335 -11.105 109.17 -10 109 C-9.505 108.01 -9.505 108.01 -9 107 C-6.49609375 106.5859375 -6.49609375 106.5859375 -3.4375 106.375 C-1.91962891 106.26285156 -1.91962891 106.26285156 -0.37109375 106.1484375 C0.41136719 106.09945312 1.19382813 106.05046875 2 106 C2 105.34 2 104.68 2 104 C3.98 103.505 3.98 103.505 6 103 C6 102.01 6 101.02 6 100 C6.99 100 7.98 100 9 100 C9 99.34 9 98.68 9 98 C9.66 98 10.32 98 11 98 C11 96.68 11 95.36 11 94 C12.98 93.505 12.98 93.505 15 93 C15 92.01 15 91.02 15 90 C15.99 90 16.98 90 18 90 C18 88.35 18 86.7 18 85 C18.66 85 19.32 85 20 85 C20.98926426 82.03220722 21.26621969 79.60593842 21.5 76.5 C21.73378031 73.39406158 22.01073574 70.96779278 23 68 C23.66 68 24.32 68 25 68 C25.75337768 44.54039373 25.75337768 44.54039373 18 23 C18 21.68 18 20.36 18 19 C17.34 19 16.68 19 16 19 C13.98217268 16.09432866 12.64505596 13.48330216 12 10 C11.01 10 10.02 10 9 10 C9 9.34 9 8.68 9 8 C7.68 7.34 6.36 6.68 5 6 C5 5.34 5 4.68 5 4 C3.68 4 2.36 4 1 4 C0.67 2.68 0.34 1.36 0 0 Z " fill="#189EB5" transform="translate(198,246)"/>
<path d="M0 0 C7.75 -0.125 7.75 -0.125 10 1 C9.67 1.66 9.34 2.32 9 3 C6.36 2.67 3.72 2.34 1 2 C1 26.09 1 50.18 1 75 C2.98 75 4.96 75 7 75 C7 53.88 7 32.76 7 11 C7.66 11.33 8.32 11.66 9 12 C10.03536066 15.65032757 10.10063371 19.10092097 10.03759766 22.87597656 C10.02072906 24.03357483 10.00386047 25.1911731 9.98648071 26.3838501 C9.9625827 27.62358582 9.93868469 28.86332153 9.9140625 30.140625 C9.89282318 31.41854919 9.87158386 32.69647339 9.84970093 34.01312256 C9.8034941 36.70968122 9.75512536 39.40609642 9.703125 42.10253906 C9.63663391 45.56497849 9.57946582 49.02749816 9.52509499 52.49014664 C9.47208997 55.7903933 9.41153207 59.09049864 9.3515625 62.390625 C9.33171295 63.63845764 9.3118634 64.88629028 9.29141235 66.17193604 C9.26823944 67.31692566 9.24506653 68.46191528 9.22119141 69.64160156 C9.20263092 70.6546637 9.18407043 71.66772583 9.16494751 72.71148682 C9 75 9 75 8 76 C6.1875 76.1328125 6.1875 76.1328125 4 76.125 C3.278125 76.12757812 2.55625 76.13015625 1.8125 76.1328125 C0 76 0 76 -1 75 C-1.09963795 72.7767159 -1.12799794 70.55022224 -1.12939453 68.32470703 C-1.13114685 67.6271228 -1.13289917 66.92953857 -1.13470459 66.21081543 C-1.13912384 63.89312285 -1.13618424 61.57550593 -1.1328125 59.2578125 C-1.13348567 57.65217067 -1.13445581 56.04652893 -1.13571167 54.44088745 C-1.13718887 51.06979404 -1.13503396 47.69872707 -1.13037109 44.32763672 C-1.12468294 40.00423125 -1.12794687 35.68088798 -1.13394356 31.35748482 C-1.1375564 28.03925101 -1.13640709 24.72103195 -1.13381577 21.4027977 C-1.13314803 19.80877551 -1.1339696 18.21475199 -1.13629532 16.62073135 C-1.13883266 14.39181218 -1.13496553 12.1629937 -1.12939453 9.93408203 C-1.12859894 8.66468781 -1.12780334 7.39529358 -1.12698364 6.08743286 C-1 3 -1 3 0 0 Z " fill="#9B9C9E" transform="translate(285,2)"/>
<path d="M0 0 C1.46657043 -0.00472824 1.46657043 -0.00472824 2.96276855 -0.009552 C4.0262854 -0.00752777 5.08980225 -0.00550354 6.18554688 -0.00341797 C7.81127625 -0.00485306 7.81127625 -0.00485306 9.46984863 -0.00631714 C11.76652077 -0.00699912 14.06319482 -0.00514358 16.35986328 -0.00097656 C19.88904115 0.00437141 23.41809174 -0.00092097 26.94726562 -0.00732422 C29.17252632 -0.00666344 31.39778694 -0.00538228 33.62304688 -0.00341797 C34.68656372 -0.0054422 35.75008057 -0.00746643 36.8458252 -0.009552 C37.82353882 -0.00639984 38.80125244 -0.00324768 39.80859375 0 C40.67383667 0.00079559 41.53907959 0.00159119 42.43054199 0.00241089 C44.40429688 0.12939453 44.40429688 0.12939453 45.40429688 1.12939453 C45.44522625 3.46236886 45.44671411 5.79644678 45.40429688 8.12939453 C45.07429688 8.12939453 44.74429688 8.12939453 44.40429688 8.12939453 C44.40429688 6.14939453 44.40429688 4.16939453 44.40429688 2.12939453 C28.23429687 2.12939453 12.06429687 2.12939453 -4.59570312 2.12939453 C-4.59570312 3.77939453 -4.59570312 5.42939453 -4.59570312 7.12939453 C2.33429688 7.12939453 9.26429688 7.12939453 16.40429688 7.12939453 C16.40429688 29.56939453 16.40429688 52.00939453 16.40429688 75.12939453 C18.71429688 75.12939453 21.02429688 75.12939453 23.40429688 75.12939453 C23.40429688 75.45939453 23.40429688 75.78939453 23.40429688 76.12939453 C20.76429688 76.12939453 18.12429688 76.12939453 15.40429688 76.12939453 C14.00912557 73.33905192 14.28474525 71.05713481 14.29077148 67.93554688 C14.29084702 66.63434906 14.29092255 65.33315125 14.29100037 63.99252319 C14.29610741 62.56679242 14.30132341 61.14106204 14.30664062 59.71533203 C14.3085054 58.26087492 14.30992902 56.80641719 14.31092834 55.35195923 C14.31474882 51.52146677 14.32457511 47.69101216 14.33563232 43.86053467 C14.34585653 39.952764 14.35042813 36.04498722 14.35546875 32.13720703 C14.36619779 24.46791894 14.38326859 16.79866203 14.40429688 9.12939453 C13.8392041 9.14510498 13.27411133 9.16081543 12.69189453 9.17700195 C10.13779665 9.23926499 7.58385816 9.27835589 5.02929688 9.31689453 C4.13984375 9.34203125 3.25039063 9.36716797 2.33398438 9.39306641 C1.0578125 9.40756836 1.0578125 9.40756836 -0.24414062 9.42236328 C-1.42242432 9.44592896 -1.42242432 9.44592896 -2.62451172 9.4699707 C-3.27500488 9.35758057 -3.92549805 9.24519043 -4.59570312 9.12939453 C-6.59570312 6.12939453 -6.59570312 6.12939453 -6.28320312 3.50439453 C-5.12928017 -0.48188475 -3.91308934 0.0035981 0 0 Z " fill="#838487" transform="translate(416.595703125,1.87060546875)"/>
<path d="M0 0 C1.56047445 0.00015913 3.12095416 0.00585397 4.68139648 0.01586914 C5.91115456 0.01799156 5.91115456 0.01799156 7.16575623 0.02015686 C9.79470406 0.0257725 12.42356797 0.0383276 15.05249023 0.05102539 C16.8304838 0.05603838 18.60847869 0.06060163 20.38647461 0.06469727 C24.75434569 0.07574701 29.12215371 0.09302208 33.48999023 0.11352539 C34.84438691 2.82231874 34.55500474 5.12285807 34.48999023 8.11352539 C33.82999023 8.11352539 33.16999023 8.11352539 32.48999023 8.11352539 C32.48999023 6.13352539 32.48999023 4.15352539 32.48999023 2.11352539 C20.93999023 2.11352539 9.38999023 2.11352539 -2.51000977 2.11352539 C-2.51000977 26.20352539 -2.51000977 50.29352539 -2.51000977 75.11352539 C9.69999023 75.11352539 21.90999023 75.11352539 34.48999023 75.11352539 C34.48999023 75.44352539 34.48999023 75.77352539 34.48999023 76.11352539 C21.61999023 76.11352539 8.74999023 76.11352539 -4.51000977 76.11352539 C-4.55011857 57.43618984 -4.55011857 57.43618984 -4.55883789 49.50219727 C-4.5648261 44.07892891 -4.5719258 38.65567736 -4.58544922 33.23242188 C-4.59627891 28.86229709 -4.60228677 24.49219031 -4.60488701 20.12205315 C-4.60674111 18.45101576 -4.61036144 16.77997942 -4.61573982 15.10894966 C-4.62295135 12.77654988 -4.62400066 10.44422546 -4.62353516 8.11181641 C-4.62713043 7.41410629 -4.63072571 6.71639618 -4.63442993 5.99754333 C-4.62171858 0.14948175 -4.62171858 0.14948175 0 0 Z " fill="#A4A8AC" transform="translate(367.510009765625,1.886474609375)"/>
<path d="M0 0 C0.66 0 1.32 0 2 0 C1.36935059 4.92983256 -0.12590072 9.31741782 -1.875 13.9375 C-12.33764353 42.60919734 -11.8137339 76.35746055 -3.90234375 105.64453125 C-3.15506894 108.42335835 -2.522485 111.17211724 -2 114 C-2.99 114.495 -2.99 114.495 -4 115 C-7.85454605 103.10118394 -10.37598417 91.39716006 -12 79 C-12.13277344 78.05640625 -12.26554687 77.1128125 -12.40234375 76.140625 C-14.09425703 62.32719606 -12.74672708 49.39356728 -10 35.875 C-9.56712768 33.69127049 -9.13866195 31.50681681 -8.71606445 29.32107544 C-8.33625155 27.36453923 -7.94393025 25.41044308 -7.55078125 23.45654297 C-6.90772547 20.03882614 -6.90772547 20.03882614 -7.03125 16.69189453 C-6.98840884 13.00153066 -5.30520528 11.83210934 -3 9 C-1.81036237 6.05328253 -0.8778973 3.05268835 0 0 Z " fill="#272A4A" transform="translate(31,236)"/>
<path d="M0 0 C1.05707153 -0.00101212 1.05707153 -0.00101212 2.13549805 -0.00204468 C12.44827362 0.01360645 22.18569113 0.40690371 32.1875 3.25 C32.84024902 3.43224121 33.49299805 3.61448242 34.16552734 3.80224609 C38.89145881 5.13990038 43.54710485 6.64227564 48.1875 8.25 C49.35667969 8.65347656 50.52585937 9.05695313 51.73046875 9.47265625 C57.90867068 11.72520115 63.44881738 14.33568371 68.96875 17.91796875 C71.30492188 19.32049448 73.65175022 20.26503934 76.1875 21.25 C78.5 22.75 78.5 22.75 80.1875 24.25 C80.1875 24.91 80.1875 25.57 80.1875 26.25 C76.17219106 24.72358106 72.38956416 22.88558796 68.5625 20.9375 C53.18706363 13.20665437 38.17447137 7.40669619 21.1875 4.25 C20.21167969 4.04375 19.23585937 3.8375 18.23046875 3.625 C2.96800656 0.74453531 -13.4196868 1.75607012 -28.8125 3.25 C-28.8125 2.59 -28.8125 1.93 -28.8125 1.25 C-19.2077453 0.36854775 -9.64081041 0.00838752 0 0 Z " fill="#242746" transform="translate(175.8125,144.75)"/>
<path d="M0 0 C1.37562854 1.28965176 2.70766393 2.62689293 4 4 C4 4.66 4 5.32 4 6 C4.61875 6.226875 5.2375 6.45375 5.875 6.6875 C8.65659901 8.40554645 9.09559541 9.90995099 10 13 C10 13.99 10 14.98 10 16 C11.32 16.33 12.64 16.66 14 17 C14.33 18.65 14.66 20.3 15 22 C16.32 22 17.64 22 19 22 C20.03172141 22.96723882 21.03074795 23.97016969 22 25 C23.93260266 25.88098716 23.93260266 25.88098716 26 26.5 C29.71463614 27.68192968 29.71463614 27.68192968 31.36328125 29.51953125 C33.75785114 31.68550258 36.03021409 31.74615896 39.1875 32.1875 C40.81751953 32.42533203 40.81751953 32.42533203 42.48046875 32.66796875 C43.31191406 32.77753906 44.14335937 32.88710938 45 33 C45 33.66 45 34.32 45 35 C34.00460975 36.07797944 23.4333517 30.76321734 15 24 C8.60462426 18.39433665 3.32589214 11.87711297 0 4 C0 2.68 0 1.36 0 0 Z " fill="#1D889E" transform="translate(118,326)"/>
<path d="M0 0 C2.38189812 2.38189812 2.37802032 3.3079069 2.78125 6.578125 C2.90113281 7.49207031 3.02101562 8.40601563 3.14453125 9.34765625 C3.26183594 10.30542969 3.37914062 11.26320313 3.5 12.25 C4.22435169 18.06869322 4.94781803 23.47234855 7 29 C7.53071612 31.21131715 7.98535704 33.42783114 8.4375 35.65625 C9.12209699 38.50873746 10.04421439 41.22589055 11 44 C11.33427002 44.98540771 11.33427002 44.98540771 11.67529297 45.99072266 C12.42115296 48.18422226 13.17852196 50.37350792 13.9375 52.5625 C14.18951172 53.30435547 14.44152344 54.04621094 14.70117188 54.81054688 C16.10913745 58.85439685 17.65464298 62.3861682 20 66 C22.15686275 70.52941176 22.15686275 70.52941176 21 74 C9.36340933 51.50644136 -1.03331353 25.83283814 0 0 Z " fill="#25294D" transform="translate(0,313)"/>
<path d="M0 0 C0.66 0.33 1.32 0.66 2 1 C-0.18551116 4.27826674 -1.68101826 5.01049674 -5 7 C-7.04862063 8.7598523 -9.034004 10.5287601 -11 12.375 C-11.50789063 12.84421875 -12.01578125 13.3134375 -12.5390625 13.796875 C-14.98554971 16.06771697 -17.36659374 18.37187607 -19.7109375 20.75 C-22.00067828 23.0006667 -24.23565216 24.39958809 -27 26 C-27.556875 26.556875 -28.11375 27.11375 -28.6875 27.6875 C-29.120625 28.120625 -29.55375 28.55375 -30 29 C-30.66 29 -31.32 29 -32 29 C-32.25910156 29.57234375 -32.51820312 30.1446875 -32.78515625 30.734375 C-34.10518129 33.19615803 -35.61602125 35.13473435 -37.4375 37.25 C-38.03433594 37.95640625 -38.63117187 38.6628125 -39.24609375 39.390625 C-41 41 -41 41 -44 41 C-34.29807468 29.08049175 -23.96645927 16.47806952 -11 8 C-10.34 8 -9.68 8 -9 8 C-9 7.34 -9 6.68 -9 6 C-7.03125 4.4921875 -7.03125 4.4921875 -4.5 2.875 C-3.6646875 2.33617187 -2.829375 1.79734375 -1.96875 1.2421875 C-1.3190625 0.83226562 -0.669375 0.42234375 0 0 Z " fill="#2A2D4D" transform="translate(78,151)"/>
<path d="M0 0 C0.33 0 0.66 0 1 0 C0.67 2.97 0.34 5.94 0 9 C-0.66 9 -1.32 9 -2 9 C-1.96970703 9.8657666 -1.93941406 10.7315332 -1.90820312 11.62353516 C-1.79446546 14.90749155 -1.68292264 18.19150858 -1.57275391 21.47558594 C-1.52509873 22.88349248 -1.47662679 24.29137167 -1.42724609 25.69921875 C-1.09687589 35.13836741 -0.93322901 44.55375988 -1 54 C-5.72836103 46.90745845 -5.31595329 37.75515329 -5.25 29.5 C-5.25773437 28.53191406 -5.26546875 27.56382812 -5.2734375 26.56640625 C-5.24797819 17.08281323 -3.57123309 8.76575394 0 0 Z " fill="#19B2CA" transform="translate(119,272)"/>
<path d="M0 0 C6.93 0 13.86 0 21 0 C21.06058594 1.97484375 21.12117188 3.9496875 21.18359375 5.984375 C21.26800296 8.57292405 21.35265077 11.16146533 21.4375 13.75 C21.47681641 15.05195313 21.51613281 16.35390625 21.55664062 17.6953125 C21.59853516 18.94570312 21.64042969 20.19609375 21.68359375 21.484375 C21.72025146 22.63647461 21.75690918 23.78857422 21.79467773 24.97558594 C21.86822571 27.89741529 21.86822571 27.89741529 22.70727539 30.15722656 C22.85217407 31.06939941 22.85217407 31.06939941 23 32 C22.01 33.32 21.02 34.64 20 36 C20 24.45 20 12.9 20 1 C13.73 1 7.46 1 1 1 C1 24.76 1 48.52 1 73 C0.67 73 0.34 73 0 73 C0 48.91 0 24.82 0 0 Z " fill="#ECECEF" transform="translate(293,222)"/>
<path d="M0 0 C4.35012634 0.49433254 6.60418345 1.32450817 10 4 C12.31254012 5.04718798 14.6485148 6.04346365 17 7 C18.155 7.53625 19.31 8.0725 20.5 8.625 C24.07433978 10.02920491 27.20575539 10.51709614 31 11 C33.01416562 11.62256028 35.02015519 12.27566653 37 13 C37 13.66 37 14.32 37 15 C38.11181641 15.16435547 38.11181641 15.16435547 39.24609375 15.33203125 C48.5271823 16.72930652 57.76271698 18.34060784 67 20 C67 20.33 67 20.66 67 21 C47.21292618 22.84351619 26.4801912 14.31754645 9 6 C6.00773355 4.64892124 3.00590427 3.32042307 0 2 C0 1.34 0 0.68 0 0 Z " fill="#232546" transform="translate(88,452)"/>
<path d="M0 0 C1.8125 1.0625 1.8125 1.0625 3 3 C3.4375 6.5 3.4375 6.5 3 10 C1.375 12.0625 1.375 12.0625 -1 13 C-4.49900021 12.23021995 -6.456333 11.543667 -9 9 C-8.8125 5.5 -8.8125 5.5 -8 2 C-4.76746204 -0.15502531 -3.74849077 -0.46856135 0 0 Z " fill="#E9EAEB" transform="translate(265,67)"/>
<path d="M0 0 C-12.16300026 5.08703503 -24.25418423 9.61117708 -37 13 C-37.85722656 13.24621094 -38.71445313 13.49242187 -39.59765625 13.74609375 C-45.99829142 15.43047143 -52.42223081 15.18299822 -59 15 C-59 14.67 -59 14.34 -59 14 C-56.43850372 13.49432271 -53.87600535 12.99529868 -51.3125 12.5 C-50.59126953 12.35691406 -49.87003906 12.21382813 -49.12695312 12.06640625 C-45.36158641 11.34428113 -41.85526187 10.8175024 -38 11 C-38 10.34 -38 9.68 -38 9 C-36.2365625 8.814375 -36.2365625 8.814375 -34.4375 8.625 C-30.47318248 8.12512108 -26.82351782 7.18660898 -23 6 C-22.19175781 5.77183594 -21.38351563 5.54367187 -20.55078125 5.30859375 C-15.73498174 3.93367939 -11.45254782 2.33228696 -7 0 C-3.87244086 -1.07230599 -3.27027227 -1.09009076 0 0 Z " fill="#242548" transform="translate(247,458)"/>
<path d="M0 0 C4.60139641 1.48868707 7.50227094 3.74629855 11 7 C11 7.66 11 8.32 11 9 C11.99 9.33 12.98 9.66 14 10 C14 10.66 14 11.32 14 12 C14.99 12.33 15.98 12.66 17 13 C20.72194418 17.89729497 22.86000504 22.94304699 24.8125 28.75 C25.03147949 29.39984863 25.25045898 30.04969727 25.47607422 30.71923828 C26.53444883 34.02058244 27 36.48884228 27 40 C26.34 40 25.68 40 25 40 C24.731875 39.175 24.46375 38.35 24.1875 37.5 C23.31446433 34.92684224 22.42957601 32.36529503 21.5 29.8125 C21.2628125 29.15894531 21.025625 28.50539063 20.78125 27.83203125 C19.94840864 25.72342961 19.94840864 25.72342961 18 23 C18 21.68 18 20.36 18 19 C17.34 19 16.68 19 16 19 C13.98217268 16.09432866 12.64505596 13.48330216 12 10 C11.01 10 10.02 10 9 10 C9 9.34 9 8.68 9 8 C7.68 7.34 6.36 6.68 5 6 C5 5.34 5 4.68 5 4 C3.68 4 2.36 4 1 4 C0.67 2.68 0.34 1.36 0 0 Z " fill="#1B8DA3" transform="translate(198,246)"/>
<path d="M0 0 C0 0.33 0 0.66 0 1 C-4.42336331 0.70912123 -8.11611358 0.44194321 -12.125 -1.5625 C-21.22841127 -5.84152281 -36.46473235 -3.08549129 -46 -1 C-47.05058594 -0.45988281 -48.10117188 0.08023438 -49.18359375 0.63671875 C-52 2 -52 2 -54.375 1.6875 C-54.91125 1.460625 -55.4475 1.23375 -56 1 C-37.74074186 -8.29476448 -18.61693113 -7.94799752 0 0 Z " fill="#177E8D" transform="translate(198,245)"/>
<path d="M0 0 C1 3 1 3 0.328125 4.9375 C-0.02765625 5.618125 -0.3834375 6.29875 -0.75 7 C-1.09546875 7.680625 -1.4409375 8.36125 -1.796875 9.0625 C-3 11 -3 11 -4.515625 12.5078125 C-6.18490188 14.18587505 -7.00156381 15.73668249 -8 17.875 C-9.51507655 21.03188954 -11.18589768 24.00278747 -13 27 C-15.67041415 31.97668092 -17.77183629 37.17138296 -19.9140625 42.390625 C-20.56204075 43.94763748 -21.24578999 45.49157998 -22 47 C-22.66 46.67 -23.32 46.34 -24 46 C-18.36852878 29.49089754 -9.73205122 14.41001788 0 0 Z " fill="#1F2348" transform="translate(33,193)"/>
<path d="M0 0 C-1.01578125 0.73863281 -2.0315625 1.47726563 -3.078125 2.23828125 C-10.92945193 8.00402468 -18.38681888 13.91222389 -25.44921875 20.625 C-27.8776417 22.88607375 -30.38266361 24.96272194 -33 27 C-32.67 25.35 -32.34 23.7 -32 22 C-31.01 22 -30.02 22 -29 22 C-29 21.34 -29 20.68 -29 20 C-28.34 20 -27.68 20 -27 20 C-26.87625 19.38125 -26.7525 18.7625 -26.625 18.125 C-26 16 -26 16 -24 14 C-23.01 14 -22.02 14 -21 14 C-21 13.34 -21 12.68 -21 12 C-20.34 12 -19.68 12 -19 12 C-19 11.34 -19 10.68 -19 10 C-18.360625 9.71125 -17.72125 9.4225 -17.0625 9.125 C-14.84793921 8.17176549 -14.84793921 8.17176549 -14 6 C-13.01 6 -12.02 6 -11 6 C-10.690625 5.1028125 -10.690625 5.1028125 -10.375 4.1875 C-7.87547297 0.21097972 -4.45227473 -1.48409158 0 0 Z " fill="#262A48" transform="translate(91,170)"/>
<path d="M0 0 C3.37362386 1.12454129 3.88517297 2.08565734 5.69140625 4.98828125 C8.01298341 8.557273 10.63770308 11.91430316 13.1953125 15.31640625 C15 18 15 18 16.0546875 20.77734375 C16.36664063 21.51082031 16.67859375 22.24429687 17 23 C17.99 23.33 18.98 23.66 20 24 C22.6875 26.4375 22.6875 26.4375 25 29 C25 29.66 25 30.32 25 31 C25.99 31.33 26.98 31.66 28 32 C28 32.99 28 33.98 28 35 C29.485 35.495 29.485 35.495 31 36 C31 36.66 31 37.32 31 38 C30.34 38 29.68 38 29 38 C29 37.34 29 36.68 29 36 C28.42121094 35.7525 27.84242187 35.505 27.24609375 35.25 C19.611612 31.00124494 14.16442177 21.68791604 9.125 14.75 C8.56562744 13.98171875 8.00625488 13.2134375 7.42993164 12.421875 C4.55805835 8.40743783 2.04677791 4.49432353 0 0 Z " fill="#212541" transform="translate(23,390)"/>
<path d="M0 0 C0 0.33 0 0.66 0 1 C-0.85980469 1.17015625 -1.71960938 1.3403125 -2.60546875 1.515625 C-15.55079408 4.16962845 -27.72402581 8.09764697 -40 13 C-39.0078043 10.40420153 -38.46306676 9.23548746 -35.94140625 7.953125 C-35.15636719 7.72109375 -34.37132813 7.4890625 -33.5625 7.25 C-32.78003906 7.00765625 -31.99757813 6.7653125 -31.19140625 6.515625 C-29 6 -29 6 -26 6 C-25.67 5.01 -25.34 4.02 -25 3 C-22.3347536 2.49118023 -19.66821581 1.99279859 -17 1.5 C-15.88431641 1.28537109 -15.88431641 1.28537109 -14.74609375 1.06640625 C-9.74779985 0.15367432 -5.08079684 -0.13856719 0 0 Z " fill="#232742" transform="translate(147,148)"/>
<path d="M0 0 C1.98 0.99 3.96 1.98 6 3 C6.33 2.34 6.66 1.68 7 1 C7.1875 3.875 7.1875 3.875 7 7 C4 9 4 9 2 10 C1.67 10.66 1.34 11.32 1 12 C-0.65 9.69 -2.3 7.38 -4 5 C-2.68 3.35 -1.36 1.7 0 0 Z " fill="#E5E3E5" transform="translate(330,60)"/>
<path d="M0 0 C2.64 0 5.28 0 8 0 C7.67 0.66 7.34 1.32 7 2 C5.68 2 4.36 2 3 2 C3 2.66 3 3.32 3 4 C2.34 4 1.68 4 1 4 C1 4.66 1 5.32 1 6 C-3.92737019 7.97094808 -7.78020872 8.1799928 -13 8 C-13 7.01 -13 6.02 -13 5 C-9.99179673 3.63263488 -7.55655872 2.9408745 -4.25 2.5 C-3.1775 2.335 -2.105 2.17 -1 2 C-0.67 1.34 -0.34 0.68 0 0 Z " fill="#18A0B9" transform="translate(189,353)"/>
<path d="M0 0 C4.66856678 2.27442997 4.66856678 2.27442997 6.01171875 5.21484375 C5.99656751 8.81578803 4.53162897 10.25216171 2.06640625 12.75390625 C1.50824219 13.28886719 0.95007813 13.82382813 0.375 14.375 C-0.15996094 14.93316406 -0.69492187 15.49132812 -1.24609375 16.06640625 C-5.22555974 19.98777784 -5.22555974 19.98777784 -8.72265625 20.04296875 C-12.2959405 18.40649037 -13.67144912 16.12691118 -16 13 C-13.53199953 14.15173355 -11.95216435 15.04783565 -10 17 C-7.93125966 17.6425235 -7.93125966 17.6425235 -6 18 C-6 17.34 -6 16.68 -6 16 C-5.34 16 -4.68 16 -4 16 C-3.95875 15.4225 -3.9175 14.845 -3.875 14.25 C-2.55934042 10.86687535 -0.03447636 9.80777315 3 8 C2.37240135 5.07120629 1.41377341 2.63904371 0 0 Z " fill="#292A44" transform="translate(288,170)"/>
<path d="M0 0 C0.99 0 1.98 0 3 0 C3 0.66 3 1.32 3 2 C1.53466797 3.18920898 1.53466797 3.18920898 -0.5078125 4.49609375 C-1.61769531 5.21055664 -1.61769531 5.21055664 -2.75 5.93945312 C-3.53375 6.43380859 -4.3175 6.92816406 -5.125 7.4375 C-5.88554687 7.92798828 -6.64609375 8.41847656 -7.4296875 8.92382812 C-18.50709556 16 -18.50709556 16 -22 16 C-21.67 15.01 -21.34 14.02 -21 13 C-20.01 12.67 -19.02 12.34 -18 12 C-17.67 11.34 -17.34 10.68 -17 10 C-15.68 10 -14.36 10 -13 10 C-12.67 9.01 -12.34 8.02 -12 7 C-10.2578125 5.83203125 -10.2578125 5.83203125 -8.125 4.8125 C-7.42632812 4.46832031 -6.72765625 4.12414062 -6.0078125 3.76953125 C-4 3 -4 3 -1 3 C-0.67 2.01 -0.34 1.02 0 0 Z " fill="#252649" transform="translate(269,441)"/>
<path d="M0 0 C-3.20622446 1.04116106 -3.72441033 1.13486303 -6.9375 -0.4375 C-16.05669707 -4.65827486 -29.40823658 -1.94720009 -39 0 C-39.99 0.66 -40.98 1.32 -42 2 C-44.1875 1.625 -44.1875 1.625 -46 1 C-33.23574331 -6.09125372 -12.84259019 -6.76880048 0 0 Z " fill="#1AB2CB" transform="translate(192,245)"/>
<path d="M0 0 C6.93 0 13.86 0 21 0 C21.06058594 1.97484375 21.12117188 3.9496875 21.18359375 5.984375 C21.26800296 8.57292405 21.35265077 11.16146533 21.4375 13.75 C21.47681641 15.05195313 21.51613281 16.35390625 21.55664062 17.6953125 C21.59853516 18.94570312 21.64042969 20.19609375 21.68359375 21.484375 C21.72025146 22.63647461 21.75690918 23.78857422 21.79467773 24.97558594 C21.86822571 27.89741529 21.86822571 27.89741529 22.70727539 30.15722656 C22.85217407 31.06939941 22.85217407 31.06939941 23 32 C22.01 33.32 21.02 34.64 20 36 C20 24.45 20 12.9 20 1 C13.4 1 6.8 1 0 1 C0 0.67 0 0.34 0 0 Z " fill="#ACACB1" transform="translate(293,222)"/>
<path d="M0 0 C0.33 0.66 0.66 1.32 1 2 C0.06409496 3.1055189 -0.87379858 4.20935453 -1.8125 5.3125 C-2.33457031 5.92738281 -2.85664063 6.54226563 -3.39453125 7.17578125 C-4.87172469 8.85424679 -6.40039131 10.43882034 -8 12 C-7.67 12.99 -7.34 13.98 -7 15 C-7.33 15.99 -7.66 16.98 -8 18 C-8 17.34 -8 16.68 -8 16 C-8.99 16 -9.98 16 -11 16 C-11.66 17.32 -12.32 18.64 -13 20 C-13.33 19.34 -13.66 18.68 -14 18 C-13.07421875 15.94140625 -13.07421875 15.94140625 -11.6875 13.5625 C-11.23761719 12.78003906 -10.78773437 11.99757813 -10.32421875 11.19140625 C-9.2614878 9.4327276 -8.13981749 7.70972623 -7 6 C-6.34 6 -5.68 6 -5 6 C-4.67 5.01 -4.34 4.02 -4 3 C-3.34 3 -2.68 3 -2 3 C-2 2.34 -2 1.68 -2 1 C-1.34 0.67 -0.68 0.34 0 0 Z " fill="#19879B" transform="translate(134,252)"/>
<path d="M0 0 C0.33 0 0.66 0 1 0 C1.01981934 0.64549805 1.03963867 1.29099609 1.06005859 1.95605469 C1.15546328 4.88777221 1.26507971 7.81879232 1.375 10.75 C1.4059375 11.76578125 1.436875 12.7815625 1.46875 13.828125 C1.52675781 15.29765625 1.52675781 15.29765625 1.5859375 16.796875 C1.6173584 17.69760742 1.6487793 18.59833984 1.68115234 19.52636719 C2.01370525 22.10632591 2.7803787 23.72981382 4 26 C4.1953125 28.578125 4.1953125 28.578125 4.125 31.25 C4.10695313 32.14203125 4.08890625 33.0340625 4.0703125 33.953125 C4.03550781 34.96632813 4.03550781 34.96632813 4 36 C-0.87005112 28.69492332 -0.26517699 19.35031619 -0.125 10.875 C-0.11597656 9.823125 -0.10695313 8.77125 -0.09765625 7.6875 C-0.07435853 5.12475122 -0.04165112 2.56250488 0 0 Z " fill="#177F91" transform="translate(114,290)"/>
<path d="M0 0 C0 6.6 0 13.2 0 20 C-0.66 20.33 -1.32 20.66 -2 21 C-2.33 15.06 -2.66 9.12 -3 3 C-3.99 2.67 -4.98 2.34 -6 2 C-3 0 -3 0 0 0 Z " fill="#A8ABAD" transform="translate(519,351)"/>
<path d="M0 0 C0.33 0 0.66 0 1 0 C0.50839669 5.43533241 -0.87793327 9.2029005 -3.5625 13.9375 C-4.20316406 15.08089844 -4.84382812 16.22429687 -5.50390625 17.40234375 C-5.99761719 18.25957031 -6.49132812 19.11679687 -7 20 C-7.33 20 -7.66 20 -8 20 C-8 18.35 -8 16.7 -8 15 C-7.34 15 -6.68 15 -6 15 C-6 13.35 -6 11.7 -6 10 C-5.34 10 -4.68 10 -4 10 C-3.79503906 9.36191406 -3.59007812 8.72382813 -3.37890625 8.06640625 C-3.10949219 7.24011719 -2.84007812 6.41382813 -2.5625 5.5625 C-2.16224609 4.32693359 -2.16224609 4.32693359 -1.75390625 3.06640625 C-1 1 -1 1 0 0 Z " fill="#1B7E90" transform="translate(222,321)"/>
<path d="M0 0 C0.33 0.66 0.66 1.32 1 2 C-0.98 2.66 -2.96 3.32 -5 4 C-5.33 5.65 -5.66 7.3 -6 9 C-3.69 9.66 -1.38 10.32 1 11 C-0.6875 12.1875 -0.6875 12.1875 -3 13 C-5.29834986 11.87755007 -7.18477881 10.81522119 -9 9 C-8.75 5.5625 -8.75 5.5625 -8 2 C-4.77208445 -0.1519437 -3.71599191 -0.20086443 0 0 Z " fill="#81858D" transform="translate(265,67)"/>
<path d="M0 0 C2.875 0.25 2.875 0.25 6 1 C7.0625 2.9375 7.0625 2.9375 8 5 C10.42383077 6.16953416 10.42383077 6.16953416 13 7 C13.99 7.66 14.98 8.32 16 9 C16 9.99 16 10.98 16 12 C12.21751528 10.31991577 9.0307578 7.92161446 5.75 5.4375 C5.19570313 5.02564453 4.64140625 4.61378906 4.0703125 4.18945312 C2.69298825 3.15306751 1.3437077 2.07961421 0 1 C0 0.67 0 0.34 0 0 Z " fill="#25274B" transform="translate(256,171)"/>
<path d="M0 0 C1.32 0 2.64 0 4 0 C4 0.66 4 1.32 4 2 C6.63904371 3.41377341 9.07120629 4.37240135 12 5 C12 5.66 12 6.32 12 7 C13.4540625 7.4021875 13.4540625 7.4021875 14.9375 7.8125 C15.948125 8.204375 16.95875 8.59625 18 9 C18.33 9.99 18.66 10.98 19 12 C14.46463751 10.41305672 10.68503997 8.0435173 6.6875 5.4375 C6.04232422 5.02564453 5.39714844 4.61378906 4.73242188 4.18945312 C3.13495169 3.15659145 1.56465902 2.08192254 0 1 C0 0.67 0 0.34 0 0 Z " fill="#222440" transform="translate(68,440)"/>
<path d="M0 0 C6.35583327 0.86670454 12.67551301 1.93034128 19 3 C19 3.66 19 4.32 19 5 C11.88486245 5.53699151 6.55004254 3.69707634 0 1 C0 0.67 0 0.34 0 0 Z " fill="#228499" transform="translate(144,356)"/>
<path d="M0 0 C0.66 0.33 1.32 0.66 2 1 C2.33 2.65 2.66 4.3 3 6 C-6.24 6 -15.48 6 -25 6 C-24.34 4.68 -23.68 3.36 -23 2 C-23 2.99 -23 3.98 -23 5 C-15.41 4.67 -7.82 4.34 0 4 C0 2.68 0 1.36 0 0 Z " fill="#BDBDBE" transform="translate(118,44)"/>
<path d="M0 0 C-1.54684266 3.32687768 -3.45954979 6.24703978 -5.5625 9.25 C-6.18253906 10.14203125 -6.80257812 11.0340625 -7.44140625 11.953125 C-8.21291016 12.96632812 -8.21291016 12.96632812 -9 14 C-9.33 14 -9.66 14 -10 14 C-10 12.35 -10 10.7 -10 9 C-9.34 9 -8.68 9 -8 9 C-7.71125 8.4225 -7.4225 7.845 -7.125 7.25 C-6.75375 6.5075 -6.3825 5.765 -6 5 C-5.67 4.278125 -5.34 3.55625 -5 2.8125 C-3.67002064 0.4019124 -2.73140367 0 0 0 Z " fill="#212440" transform="translate(54,202)"/>
<path d="M0 0 C0.33 0.66 0.66 1.32 1 2 C-0.328125 4.609375 -0.328125 4.609375 -2.25 7.75 C-4.68969014 11.76238296 -6.95009192 15.77364631 -9 20 C-9.33 18.68 -9.66 17.36 -10 16 C-9.34 16 -8.68 16 -8 16 C-7.7834375 14.576875 -7.7834375 14.576875 -7.5625 13.125 C-7 10 -7 10 -6 8 C-5.34 8 -4.68 8 -4 8 C-3.71125 7.05125 -3.4225 6.1025 -3.125 5.125 C-2 2 -2 2 0 0 Z " fill="#202240" transform="translate(43,216)"/>
<path d="M0 0 C-0.33 0.66 -0.66 1.32 -1 2 C-2.890625 2.30859375 -2.890625 2.30859375 -5.25 2.4375 C-9.28753317 2.77662719 -11.55788635 3.83638571 -15 6 C-17.3125 5.6875 -17.3125 5.6875 -19 5 C-13.6808996 0.12415796 -6.85779176 -0.28574132 0 0 Z " fill="#2A2C50" transform="translate(151,126)"/>
<path d="M0 0 C0.33 0 0.66 0 1 0 C0.67 2.97 0.34 5.94 0 9 C-0.66 9 -1.32 9 -2 9 C-2 11.97 -2 14.94 -2 18 C-2.66 18 -3.32 18 -4 18 C-4.39873011 11.88613837 -3.12115707 6.73701549 -1 1 C-0.67 0.67 -0.34 0.34 0 0 Z " fill="#1A8699" transform="translate(119,272)"/>
<path d="M0 0 C3.42298577 1.14099526 4.14758766 2.00085621 6 5 C6 5.99 6 6.98 6 8 C4.46875 9.38671875 4.46875 9.38671875 2.5 10.6875 C1.52546875 11.34298828 1.52546875 11.34298828 0.53125 12.01171875 C0.0259375 12.33785156 -0.479375 12.66398437 -1 13 C-1.33 12.01 -1.66 11.02 -2 10 C-0.68 9.01 0.64 8.02 2 7 C1.42415568 4.61435923 0.77772405 2.33317216 0 0 Z " fill="#282A46" transform="translate(288,417)"/>
<path d="M0 0 C15.42857143 1.42857143 15.42857143 1.42857143 20 6 C12.74601342 5.52432875 6.73187777 3.70533406 0 1 C0 0.67 0 0.34 0 0 Z " fill="#1C8699" transform="translate(178,240)"/>
<path d="M0 0 C3.45289173 3.16761008 5.0608577 6.80126393 7 11 C7.433125 11.928125 7.86625 12.85625 8.3125 13.8125 C9 16 9 16 8 19 C6.65929682 16.39939496 5.32726646 13.79495084 4 11.1875 C3.6184375 10.44951172 3.236875 9.71152344 2.84375 8.95117188 C2.4828125 8.23896484 2.121875 7.52675781 1.75 6.79296875 C1.41484375 6.1383667 1.0796875 5.48376465 0.734375 4.80932617 C0 3 0 3 0 0 Z " fill="#21243C" transform="translate(13,368)"/>
<path d="M0 0 C0 0.99 0 1.98 0 3 C-0.99 3 -1.98 3 -3 3 C-3 3.66 -3 4.32 -3 5 C-4.26418246 5.69965443 -5.53665402 6.38434763 -6.8125 7.0625 C-7.52019531 7.44535156 -8.22789062 7.82820313 -8.95703125 8.22265625 C-11 9 -11 9 -14 8 C-13.34 8 -12.68 8 -12 8 C-12 7.34 -12 6.68 -12 6 C-11.360625 5.87625 -10.72125 5.7525 -10.0625 5.625 C-9.381875 5.41875 -8.70125 5.2125 -8 5 C-7.67 4.34 -7.34 3.68 -7 3 C-6.01 3 -5.02 3 -4 3 C-4 2.34 -4 1.68 -4 1 C-2 0 -2 0 0 0 Z " fill="#1A8195" transform="translate(204,349)"/>
<path d="M0 0 C-2.86931716 2.33796213 -5.55896672 3.67652566 -9 5 C-9.99 5.66 -10.98 6.32 -12 7 C-14.1875 6.625 -14.1875 6.625 -16 6 C-13.9021477 4.79994469 -11.7979751 3.61497017 -9.6875 2.4375 C-8.79514648 1.92413086 -8.79514648 1.92413086 -7.88476562 1.40039062 C-3.33984375 -1.11328125 -3.33984375 -1.11328125 0 0 Z " fill="#272E4E" transform="translate(102,141)"/>
<path d="M0 0 C1.4540625 0.0309375 1.4540625 0.0309375 2.9375 0.0625 C2.9375 0.7225 2.9375 1.3825 2.9375 2.0625 C1.1883503 2.40026684 -0.56186145 2.73253671 -2.3125 3.0625 C-3.77429688 3.3409375 -3.77429688 3.3409375 -5.265625 3.625 C-8.0625 4.0625 -8.0625 4.0625 -12.0625 4.0625 C-12.0625 3.4025 -12.0625 2.7425 -12.0625 2.0625 C-10.01171875 1.83463542 -7.9609375 1.60677083 -5.91015625 1.37890625 C-3.00452994 0.88132542 -3.42063662 0.06980891 0 0 Z " fill="#2B2C51" transform="translate(221.0625,464.9375)"/>
<path d="M0 0 C0.33 0.66 0.66 1.32 1 2 C-4.24882694 5.17692157 -9.01488629 5.65697965 -15 6 C-11.89621148 3.36177976 -9.18537076 2.29634269 -5.25 1.3125 C-4.26515625 1.06113281 -3.2803125 0.80976563 -2.265625 0.55078125 C-1.51796875 0.36902344 -0.7703125 0.18726563 0 0 Z " fill="#292F47" transform="translate(130,129)"/>
<path d="M0 0 C0.33 0.66 0.66 1.32 1 2 C-0.25 4.8125 -0.25 4.8125 -2 8 C-2.515625 8.94875 -3.03125 9.8975 -3.5625 10.875 C-4.036875 11.57625 -4.51125 12.2775 -5 13 C-5.66 13 -6.32 13 -7 13 C-5.58832253 7.73829306 -3.25149768 4.27828642 0 0 Z " fill="#B2B4B7" transform="translate(406,248)"/>
<path d="M0 0 C0.66 0.33 1.32 0.66 2 1 C-0.63886654 5.2026393 -3.36440339 8.56638098 -7 12 C-7.66 11.67 -8.32 11.34 -9 11 C-6.03 7.37 -3.06 3.74 0 0 Z " fill="#232649" transform="translate(43,181)"/>
<path d="M0 0 C1.95803507 -0.05389087 3.91648909 -0.09274217 5.875 -0.125 C7.51082031 -0.15980469 7.51082031 -0.15980469 9.1796875 -0.1953125 C12 0 12 0 14 2 C9.37627754 3.30042194 5.66289322 2.85486376 1 2 C0.67 1.34 0.34 0.68 0 0 Z " fill="#2B2B48" transform="translate(187,126)"/>
<path d="M0 0 C2.54080889 2.9826887 3.2802322 5.19551307 4 9 C4.66 9.33 5.32 9.66 6 10 C6 11.65 6 13.3 6 15 C5.67 14.34 5.34 13.68 5 13 C4.34 13 3.68 13 3 13 C2.87882812 12.36191406 2.75765625 11.72382812 2.6328125 11.06640625 C2.46523437 10.24011719 2.29765625 9.41382813 2.125 8.5625 C1.96257812 7.73878906 1.80015625 6.91507813 1.6328125 6.06640625 C1.42398438 5.38449219 1.21515625 4.70257813 1 4 C0.34 3.67 -0.32 3.34 -1 3 C-0.67 2.01 -0.34 1.02 0 0 Z " fill="#95979A" transform="translate(121,30)"/>
<path d="M0 0 C0 0.66 0 1.32 0 2 C-1.61457079 3.43581474 -3.29219075 4.80144783 -5 6.125 C-5.928125 6.84945313 -6.85625 7.57390625 -7.8125 8.3203125 C-8.534375 8.87460937 -9.25625 9.42890625 -10 10 C-10.33 9.01 -10.66 8.02 -11 7 C-10.236875 6.401875 -9.47375 5.80375 -8.6875 5.1875 C-6.08429709 3.1719574 -6.08429709 3.1719574 -4.375 1.25 C-3 0 -3 0 0 0 Z " fill="#23264F" transform="translate(286,430)"/>
<path d="M0 0 C1.32 0 2.64 0 4 0 C4 0.66 4 1.32 4 2 C4.99 2.33 5.98 2.66 7 3 C7 3.99 7 4.98 7 6 C7.99 6.33 8.98 6.66 10 7 C10 7.66 10 8.32 10 9 C9.34 9 8.68 9 8 9 C8 8.34 8 7.68 8 7 C7.4225 6.773125 6.845 6.54625 6.25 6.3125 C3.4336339 4.66961977 1.91922886 2.60466773 0 0 Z " fill="#1A1D35" transform="translate(44,419)"/>
<path d="M0 0 C0.66 0.33 1.32 0.66 2 1 C2 3.97 2 6.94 2 10 C-1.37462715 9.45276317 -3.08235 8.9451 -6 7 C-3.03 7.495 -3.03 7.495 0 8 C0 5.36 0 2.72 0 0 Z " fill="#8C8F94" transform="translate(188,3)"/>
<path d="M0 0 C3.3 0.99 6.6 1.98 10 3 C10 3.66 10 4.32 10 5 C4.60158311 5.49076517 4.60158311 5.49076517 1.625 3.0625 C0 1 0 1 0 0 Z " fill="#209FB6" transform="translate(138,351)"/>
<path d="M0 0 C0.66 0 1.32 0 2 0 C1.45660208 4.56454251 0.20536179 7.9728176 -2 12 C-3.15957207 8.52128379 -2.77456651 7.65780355 -1.5625 4.3125 C-1.13130859 3.10013672 -1.13130859 3.10013672 -0.69140625 1.86328125 C-0.46324219 1.24839844 -0.23507813 0.63351563 0 0 Z " fill="#242740" transform="translate(31,236)"/>
<path d="M0 0 C-4.29456388 2.30440013 -8.31479085 3.78184562 -13 5 C-13 4.34 -13 3.68 -13 3 C-11.5903653 2.29819469 -10.17192359 1.61406042 -8.75 0.9375 C-7.96109375 0.55464844 -7.1721875 0.17179687 -6.359375 -0.22265625 C-3.74006478 -1.08564091 -2.55144824 -0.93045933 0 0 Z " fill="#262B49" transform="translate(236,441)"/>
<path d="M0 0 C0.75 1.625 0.75 1.625 1 4 C-2.17808219 9.5890411 -2.17808219 9.5890411 -5 11 C-3.77472971 6.94718288 -2.30119506 3.55639236 0 0 Z " fill="#272C4E" transform="translate(23,210)"/>
<path d="M0 0 C1 3 1 3 0 6 C0 5.34 0 4.68 0 4 C-0.99 4 -1.98 4 -3 4 C-3.66 5.32 -4.32 6.64 -5 8 C-5.33 7.34 -5.66 6.68 -6 6 C-5.06694014 3.28564404 -4.37326623 2.21956837 -1.875 0.75 C-1.25625 0.5025 -0.6375 0.255 0 0 Z " fill="#169DB6" transform="translate(126,264)"/>
<path d="M0 0 C0.66 0.33 1.32 0.66 2 1 C-3.14285714 7.57142857 -3.14285714 7.57142857 -7 9 C-6.67 8.01 -6.34 7.02 -6 6 C-5.34 6 -4.68 6 -4 6 C-3.71125 5.38125 -3.4225 4.7625 -3.125 4.125 C-2 2 -2 2 0 0 Z " fill="#A6A6AA" transform="translate(416,236)"/>
<path d="M0 0 C-4.95 2.475 -4.95 2.475 -10 5 C-9.67 3.68 -9.34 2.36 -9 1 C-2.25 -1.125 -2.25 -1.125 0 0 Z " fill="#252841" transform="translate(105,162)"/>
<path d="M0 0 C0.33 0.66 0.66 1.32 1 2 C-4.625 4 -4.625 4 -8 4 C-7.67 3.01 -7.34 2.02 -7 1 C-4.53721199 -0.231394 -2.7204945 -0.07159196 0 0 Z " fill="#AAADB3" transform="translate(265,67)"/>
<path d="M0 0 C0 3 0 3 -1.375 4.6875 C-3 6 -3 6 -5 6 C-5 6.66 -5 7.32 -5 8 C-6.32 7.67 -7.64 7.34 -9 7 C-6.03 4.69 -3.06 2.38 0 0 Z " fill="#26284D" transform="translate(271,416)"/>
<path d="M0 0 C3 4 3 4 2.8125 6.5625 C2 9 2 9 0 12 C0 8.04 0 4.08 0 0 Z " fill="#ABA8A8" transform="translate(313,246)"/>
<path d="M0 0 C2.9719385 1.12451727 5.33440687 2.22293791 8 4 C7.67 4.66 7.34 5.32 7 6 C6.34 6 5.68 6 5 6 C5 5.34 5 4.68 5 4 C3.68 4 2.36 4 1 4 C0.67 2.68 0.34 1.36 0 0 Z " fill="#198091" transform="translate(198,246)"/>
<path d="M0 0 C0.66 0 1.32 0 2 0 C1.25 6.75 1.25 6.75 -1 9 C-2.25541557 5.23375329 -1.37061958 3.62811066 0 0 Z " fill="#2C2E4F" transform="translate(9,240)"/>
<path d="M0 0 C5.66153846 1.47692308 5.66153846 1.47692308 7.375 4.125 C7.684375 5.053125 7.684375 5.053125 8 6 C4.63408134 4.55746343 2.48952921 2.66735273 0 0 Z " fill="#1C2545" transform="translate(58,432)"/>
<path d="M0 0 C0.66 0.33 1.32 0.66 2 1 C-4.45 5.09326923 -4.45 5.09326923 -7.234375 4.62109375 C-7.81703125 4.41613281 -8.3996875 4.21117187 -9 4 C-7.54618103 3.30300448 -6.08677047 2.61766134 -4.625 1.9375 C-3.40683594 1.36322266 -3.40683594 1.36322266 -2.1640625 0.77734375 C-1.44992188 0.52082031 -0.73578125 0.26429688 0 0 Z " fill="#146576" transform="translate(151,242)"/>
<path d="M0 0 C2.66735273 2.48952921 4.55746343 4.63408134 6 8 C4.68 7.67 3.36 7.34 2 7 C1.34 4.69 0.68 2.38 0 0 Z " fill="#B7B8B9" transform="translate(299,11)"/>
<path d="" fill="#000000" transform="translate(0,0)"/>
<path d="" fill="#000000" transform="translate(0,0)"/>
<path d="" fill="#000000" transform="translate(0,0)"/>
<path d="" fill="#000000" transform="translate(0,0)"/>
<path d="" fill="#000000" transform="translate(0,0)"/>
<path d="" fill="#000000" transform="translate(0,0)"/>
<path d="" fill="#000000" transform="translate(0,0)"/>
<path d="" fill="#000000" transform="translate(0,0)"/>
<path d="" fill="#000000" transform="translate(0,0)"/>
<path d="" fill="#000000" transform="translate(0,0)"/>
<path d="" fill="#000000" transform="translate(0,0)"/>
<path d="" fill="#000000" transform="translate(0,0)"/>
<path d="" fill="#000000" transform="translate(0,0)"/>
<path d="" fill="#000000" transform="translate(0,0)"/>
<path d="" fill="#000000" transform="translate(0,0)"/>
<path d="" fill="#000000" transform="translate(0,0)"/>
<path d="" fill="#000000" transform="translate(0,0)"/>
<path d="" fill="#000000" transform="translate(0,0)"/>
<path d="" fill="#000000" transform="translate(0,0)"/>
<path d="" fill="#000000" transform="translate(0,0)"/>
<path d="" fill="#000000" transform="translate(0,0)"/>
<path d="" fill="#000000" transform="translate(0,0)"/>
<path d="" fill="#000000" transform="translate(0,0)"/>
<path d="" fill="#000000" transform="translate(0,0)"/>
<path d="" fill="#000000" transform="translate(0,0)"/>
<path d="" fill="#000000" transform="translate(0,0)"/>
<path d="" fill="#000000" transform="translate(0,0)"/>
<path d="" fill="#000000" transform="translate(0,0)"/>
<path d="" fill="#000000" transform="translate(0,0)"/>
<path d="" fill="#000000" transform="translate(0,0)"/>
<path d="" fill="#000000" transform="translate(0,0)"/>
<path d="" fill="#000000" transform="translate(0,0)"/>
<path d="" fill="#000000" transform="translate(0,0)"/>
<path d="" fill="#000000" transform="translate(0,0)"/>
<path d="" fill="#000000" transform="translate(0,0)"/>
<path d="" fill="#000000" transform="translate(0,0)"/>
<path d="" fill="#000000" transform="translate(0,0)"/>
<path d="" fill="#000000" transform="translate(0,0)"/>
<path d="" fill="#000000" transform="translate(0,0)"/>
<path d="" fill="#000000" transform="translate(0,0)"/>
<path d="" fill="#000000" transform="translate(0,0)"/>
<path d="" fill="#000000" transform="translate(0,0)"/>
<path d="" fill="#000000" transform="translate(0,0)"/>
<path d="" fill="#000000" transform="translate(0,0)"/>
<path d="" fill="#000000" transform="translate(0,0)"/>
<path d="" fill="#000000" transform="translate(0,0)"/>
<path d="" fill="#000000" transform="translate(0,0)"/>
<path d="" fill="#000000" transform="translate(0,0)"/>
<path d="" fill="#000000" transform="translate(0,0)"/>
<path d="" fill="#000000" transform="translate(0,0)"/>
<path d="" fill="#000000" transform="translate(0,0)"/>
<path d="" fill="#000000" transform="translate(0,0)"/>
<path d="" fill="#000000" transform="translate(0,0)"/>
<path d="" fill="#000000" transform="translate(0,0)"/>
<path d="" fill="#000000" transform="translate(0,0)"/>
<path d="" fill="#000000" transform="translate(0,0)"/>
<path d="" fill="#000000" transform="translate(0,0)"/>
<path d="" fill="#000000" transform="translate(0,0)"/>
<path d="" fill="#000000" transform="translate(0,0)"/>
<path d="" fill="#000000" transform="translate(0,0)"/>
<path d="" fill="#000000" transform="translate(0,0)"/>
<path d="" fill="#000000" transform="translate(0,0)"/>
<path d="" fill="#000000" transform="translate(0,0)"/>
<path d="" fill="#000000" transform="translate(0,0)"/>
</svg>
