<?xml version="1.0" encoding="UTF-8"?>
<svg version="1.1" xmlns="http://www.w3.org/2000/svg" width="512" height="512">
<path d="M0 0 C1.0999568 -0.00525911 1.0999568 -0.00525911 2.22213495 -0.01062447 C4.68068859 -0.01993241 7.13900505 -0.01501674 9.59756851 -0.01015663 C11.37753564 -0.0138932 13.15750112 -0.01849475 14.937464 -0.02388728 C19.83010045 -0.03613193 24.72266859 -0.03585508 29.61531687 -0.03349853 C34.89153633 -0.03309073 40.16773379 -0.04412598 45.44394302 -0.05361366 C55.78173933 -0.07023279 66.11951283 -0.07572363 76.45732138 -0.07683842 C84.8600333 -0.07778848 93.26273769 -0.08189669 101.66544724 -0.08823967 C125.48515781 -0.10585475 149.30485035 -0.11507815 173.12456748 -0.11357872 C175.05111113 -0.11345885 175.05111113 -0.11345885 177.01657486 -0.11333656 C178.30250433 -0.1132548 179.5884338 -0.11317304 180.91333082 -0.1130888 C201.75430607 -0.11227588 222.59520905 -0.13141449 243.4361634 -0.1596133 C264.83206158 -0.18833468 286.22792452 -0.20215399 307.62384248 -0.20042574 C319.63739081 -0.19976157 331.6508634 -0.20526569 343.66439438 -0.22678185 C353.89308231 -0.24498382 364.12166015 -0.24934904 374.35035726 -0.235763 C379.56880156 -0.22922837 384.78703457 -0.22913416 390.00545883 -0.2464695 C394.78489775 -0.26218319 399.56395758 -0.25935386 404.34338716 -0.24190123 C406.0701593 -0.2388276 407.79695962 -0.24247742 409.52369854 -0.25362138 C419.89837271 -0.31612962 428.24848582 0.39476168 437.29294205 5.94476891 C447.65429344 16.59393562 448.6954589 27.51246703 448.67665482 41.68666649 C448.67892037 42.93924238 448.68118593 44.19181827 448.68352014 45.48235101 C448.68962085 48.94751923 448.68950659 52.41266327 448.68832576 55.87783563 C448.68812132 59.61959221 448.69364467 63.36134112 448.69838333 67.1030941 C448.70668087 74.42947541 448.70943776 81.75584868 448.70999571 89.0822343 C448.71047128 95.03879086 448.71252807 100.99534476 448.71569633 106.95190048 C448.72450034 123.84850938 448.72911609 140.74511193 448.72836586 157.64172313 C448.72830593 159.00735701 448.72830593 159.00735701 448.72824478 160.40057945 C448.7282039 161.31211657 448.72816302 162.22365369 448.7281209 163.16281315 C448.72771447 177.93486964 448.73728402 192.70690064 448.75138315 207.47894976 C448.7657536 222.65528802 448.77265297 237.83161384 448.77178937 253.00795907 C448.77145764 261.52490929 448.77419426 270.04183277 448.78496742 278.55877686 C448.7940812 285.81018757 448.79624045 293.06155945 448.789458 300.31297342 C448.78619727 304.01039963 448.78611991 307.70775135 448.79481125 311.40517044 C448.8041494 315.41914323 448.79788859 319.43294417 448.79018021 323.44692039 C448.79532377 324.60753827 448.80046733 325.76815614 448.80576676 326.96394426 C448.75661617 338.56006594 447.46386412 349.24074431 439.29294205 358.00726891 C432.89448727 363.97100913 426.05290369 365.93194701 417.54294205 367.25726891 C418.36794205 368.10289391 419.19294205 368.94851891 420.04294205 369.81976891 C422.20391352 372.42275727 422.54643732 373.28217273 423.04294205 376.81976891 C421.99276518 384.03973487 416.85867749 388.18799389 411.85544205 393.06976891 C411.15354752 393.76264 410.45165298 394.45551109 409.72848892 395.16937828 C408.00443164 396.869979 406.27586927 398.56571552 404.54294205 400.25726891 C406.12794068 404.11411413 408.58727138 406.53670937 411.52756119 409.45306969 C412.28636833 410.20990547 412.28636833 410.20990547 413.06050491 410.98203087 C414.72848123 412.64353224 416.40331519 414.29794399 418.0780983 415.95258141 C419.23920473 417.10741584 420.39979645 418.26276799 421.55989456 419.41861534 C424.61144366 422.45687374 427.66851279 425.48951147 430.72720718 428.52057457 C435.62785348 433.37806371 440.52175902 438.24232151 445.41247749 443.10980415 C447.12353272 444.81061797 448.83794979 446.50798904 450.55272293 448.20505333 C451.59783522 449.24333975 452.64283934 450.28173508 453.68771744 451.32025719 C454.60323883 452.22752556 455.51876022 453.13479393 456.46202469 454.06955528 C459.71739636 457.49199824 460.09408988 460.10849349 459.99025345 464.7245388 C459.46108311 467.7207639 458.60074734 468.81634161 456.54220963 471.02313805 C455.90433517 471.71287712 455.26646072 472.4026162 454.60925674 473.11325645 C453.92737289 473.82078056 453.24548904 474.52830467 452.54294205 475.25726891 C451.54924103 476.29015541 451.54924103 476.29015541 450.53546524 477.34390831 C448.39210738 479.53952693 446.22724998 481.71167617 444.0546608 483.87836266 C442.87804634 485.0564122 442.87804634 485.0564122 441.6776619 486.25826073 C440.03429228 487.90230608 438.38967829 489.54510843 436.74386978 491.18671227 C434.21674057 493.7084411 431.69504917 496.23552054 429.17380142 498.76312828 C427.5719088 500.36436086 425.96970642 501.96528362 424.3671608 503.56586266 C423.61198669 504.32306099 422.85681259 505.08025932 422.07875443 505.86040306 C421.38075226 506.55525307 420.68275009 507.25010307 419.96359634 507.96600914 C419.04262413 508.88578796 419.04262413 508.88578796 418.10304642 509.82414818 C415.03054129 512.64656882 412.10740472 512.8026656 408.06528091 512.69405174 C405.13329636 512.18633228 404.10296035 511.43239656 401.94333267 509.42499352 C400.90728897 508.46676186 400.90728897 508.46676186 399.85031509 507.48917198 C395.27415465 503.06268942 390.75169297 498.58712451 386.26169205 494.07367516 C385.19717433 493.00728806 384.13243243 491.94112472 383.06747818 490.87517357 C380.29030372 488.09421484 377.5161478 485.31026447 374.74264908 482.52564049 C371.90188567 479.6745741 369.05822333 476.82640222 366.21481705 473.97797203 C360.65471375 468.40720373 355.09780186 462.83326572 349.54294205 457.25726891 C346.44088101 458.7375826 344.34597344 460.22600213 341.94137955 462.69867516 C341.2865358 463.36447594 340.63169205 464.03027672 339.95700455 464.71625328 C339.28411392 465.41041344 338.6112233 466.10457359 337.91794205 466.81976891 C336.57382335 468.19825427 335.22757052 469.57466291 333.87887955 470.94867516 C333.2863942 471.55912682 332.69390884 472.16957848 332.08346939 472.79852867 C329.17307946 475.55440503 326.62546762 475.43396037 322.7109108 475.58539391 C319.72011682 475.13273319 317.99571811 474.02532302 315.54294205 472.25726891 C314.11581802 469.76666832 314.11581802 469.76666832 313.00583267 466.82953453 C312.38575333 465.21848839 312.38575333 465.21848839 311.75314713 463.57489586 C311.15409561 461.93267052 311.15409561 461.93267052 310.54294205 460.25726891 C309.99126358 458.77843224 309.99126358 458.77843224 309.42844009 457.26972008 C308.30738422 454.22150975 307.21833076 451.16342726 306.13669205 448.10101891 C305.73448441 446.97100456 305.33227676 445.84099022 304.91788101 444.67673302 C303.62330005 441.03794706 302.33306174 437.39763868 301.04294205 433.75726891 C299.25782011 428.73335571 297.47070874 423.71015142 295.68356705 418.68695641 C295.02381882 416.83111427 295.02381882 416.83111427 294.35074234 414.93778038 C291.70346961 407.49675923 289.03611437 400.06347634 286.33981705 392.64008141 C286.02979752 391.78601707 285.71977798 390.93195274 285.40036392 390.05200768 C283.98801808 386.16375767 282.57158466 382.27704876 281.15036392 378.39203453 C280.66133512 377.04766859 280.17239644 375.70326987 279.68356705 374.35883141 C279.26623306 373.21752769 278.84889908 372.07622398 278.41891861 370.90033531 C277.54294205 368.25726891 277.54294205 368.25726891 277.54294205 366.25726891 C276.94580387 366.25878779 276.34866569 366.26030667 275.73343241 366.26187158 C240.32692187 366.35142163 204.92043085 366.4200342 169.51383058 366.46153022 C165.26067614 366.46653293 161.00752193 366.47171023 156.75436783 366.47699547 C155.90765634 366.47804471 155.06094485 366.47909395 154.18857543 366.48017499 C140.48625929 366.49757101 126.7840104 366.52910427 113.08173414 366.56588009 C99.01755571 366.60331186 84.95341246 366.62550949 70.88918626 366.63362288 C62.21370846 366.63910603 53.53842078 366.65641189 44.86300151 366.68893477 C38.91055834 366.71011028 32.95821319 366.71646209 27.00573511 366.71127442 C23.57356432 366.70871733 20.14172531 366.71258325 16.7096138 366.73409081 C12.98188765 366.75403094 9.2549709 366.74919222 5.52722549 366.73828697 C4.45132459 366.74993834 3.37542369 366.7615897 2.26691973 366.77359414 C-6.52367983 366.70422197 -14.54664718 364.64640884 -21.26955795 358.69476891 C-21.95662827 358.11597984 -22.64369858 357.53719078 -23.3515892 356.94086266 C-29.91515265 348.57505915 -31.18700015 340.22265022 -31.08524704 329.84659386 C-31.09234143 328.53680852 -31.09943581 327.22702318 -31.10674518 325.87754738 C-31.12555116 322.27103795 -31.11350079 318.66521313 -31.09602225 315.05872178 C-31.08258856 311.15819415 -31.0981066 307.25776276 -31.10984421 303.35724449 C-31.1281796 295.72819288 -31.11973648 288.09939815 -31.10175598 280.47035466 C-31.08770645 274.26882597 -31.08384223 268.06736682 -31.08719826 261.86582375 C-31.0876757 260.98179704 -31.08815314 260.09777034 -31.08864505 259.18695495 C-31.08967142 257.39086339 -31.09072678 255.59477185 -31.09181082 253.79868032 C-31.10036932 237.9334255 -31.0837294 222.0682944 -31.05398178 206.20306969 C-31.02513668 190.81890226 -31.01806657 175.43491299 -31.03347397 160.05072594 C-31.05024422 143.28286897 -31.05426269 126.5150965 -31.03676361 109.74723732 C-31.03491928 107.95851907 -31.03308456 106.16980081 -31.03125954 104.38108253 C-31.03034745 103.50107852 -31.02943536 102.62107451 -31.02849563 101.71440371 C-31.02289611 95.52136023 -31.02619187 89.32835808 -31.03280449 83.13531685 C-31.04054482 75.58674206 -31.03375962 68.03834247 -31.00862945 60.48980294 C-30.99615172 56.64051761 -30.98996683 52.7915048 -31.00117111 48.94220924 C-31.01309762 44.76587989 -30.99392054 40.59026398 -30.97172165 36.41397667 C-30.97996242 35.2025921 -30.98820318 33.99120754 -30.99669367 32.74311435 C-30.89594174 22.47591893 -28.24920222 15.48650359 -21.2500267 7.97992516 C-14.92114515 1.89923503 -8.62951511 0.00931899 0 0 Z M-8.45705795 26.25726891 C-13.37866564 36.10048428 -9.45705795 48.25221956 -9.45705795 59.25726891 C134.42294205 59.25726891 278.30294205 59.25726891 426.54294205 59.25726891 C429.20117012 31.71582371 429.20117012 31.71582371 423.54294205 23.25726891 C420.11765565 20.71412687 416.63389859 21.00355656 412.47698021 20.99720669 C411.76166872 20.99340102 411.04635722 20.98959535 410.30936962 20.98567435 C407.90002269 20.97532541 405.4909099 20.97927077 403.08154678 20.98311424 C401.34170262 20.97866364 399.60186048 20.97335018 397.86202133 20.96724552 C393.07116271 20.95303399 388.28036886 20.95140282 383.48949218 20.95184243 C378.32646826 20.95019702 373.16347124 20.93713577 368.00046158 20.92564964 C356.7072677 20.90278018 345.41409259 20.89487713 334.1208787 20.8898232 C327.07266872 20.88656882 320.02446421 20.88004797 312.97625732 20.87282181 C293.47063561 20.85325433 273.96501899 20.83685066 254.45938683 20.83394527 C253.21070473 20.8337577 251.96202264 20.83357013 250.6755017 20.83337688 C248.14400983 20.83301062 245.61251796 20.83264693 243.08102609 20.83228577 C241.82435191 20.83210296 240.56767773 20.83192015 239.27292252 20.8317318 C238.01471895 20.83155125 236.75651539 20.8313707 235.46018444 20.83118468 C215.06255381 20.82764134 194.66502865 20.80060962 174.26743461 20.76323391 C153.33718365 20.72518828 132.40698508 20.70578808 111.47669876 20.70548576 C99.72032672 20.70490039 87.96408051 20.69635705 76.20774078 20.6674881 C66.19919241 20.64302441 56.19081578 20.63565745 46.18224563 20.65073562 C41.07362663 20.65792475 35.96534709 20.656961 30.85676575 20.63432503 C26.18224009 20.6138103 21.50831651 20.61626478 16.83379792 20.63719987 C15.14068153 20.64070918 13.44752237 20.63572414 11.75446214 20.62149543 C9.45576916 20.60341842 7.15921334 20.6160613 4.86058617 20.63644314 C2.94435233 20.63522145 2.94435233 20.63522145 0.9894067 20.63397509 C-3.56705852 21.45801273 -5.19745109 23.02137118 -8.45705795 26.25726891 Z M-9.45705795 81.25726891 C-9.51893295 123.39414391 -9.58080795 165.53101891 -9.64455795 208.94476891 C-9.67186996 222.26424889 -9.69918198 235.58372887 -9.72732162 249.30682945 C-9.73735307 261.2153137 -9.73735307 261.2153137 -9.74338913 273.12380028 C-9.74619134 278.44028792 -9.75721524 283.75668426 -9.77378464 289.0731411 C-9.79486729 295.84771276 -9.80054129 302.62213077 -9.79627478 309.39674151 C-9.79716739 311.88732464 -9.80314753 314.37791216 -9.81470335 316.86846864 C-9.8295573 320.22489465 -9.82605305 323.58080933 -9.8178215 326.93724632 C-9.8265595 327.91848378 -9.83529749 328.89972124 -9.84430027 329.91069317 C-9.81638315 336.60408937 -9.81638315 336.60408937 -6.45705795 342.25726891 C-1.85299493 346.36361324 3.60551023 345.66699818 9.43242264 345.61803246 C10.54333745 345.62059573 11.65425227 345.623159 12.79883116 345.62579995 C16.52854156 345.63074899 20.2578489 345.6142259 23.98752213 345.59784508 C26.65818571 345.59699905 29.32882446 345.59734131 31.99948502 345.59917259 C37.75292841 345.60074531 43.50626971 345.59133632 49.25968742 345.57445908 C57.57813661 345.55007338 65.89653646 345.54226425 74.21501752 345.5384951 C87.71131657 345.53192994 101.20756121 345.51196703 114.70383072 345.48358727 C127.81385399 345.45604837 140.92386248 345.43481396 154.03390884 345.42206383 C154.84207103 345.42127566 155.65023321 345.42048749 156.48288516 345.41967543 C160.5372152 345.41576031 164.59154535 345.41196919 168.64587557 345.40823972 C202.27827052 345.3771418 235.91059961 345.32430425 269.54294205 345.25726891 C269.06434964 343.65293082 268.58504647 342.04880475 268.10544205 340.44476891 C267.70518814 339.10478844 267.70518814 339.10478844 267.2968483 337.73773766 C266.73906331 335.90253836 266.14949629 334.07693165 265.54294205 332.25726891 C265.04559846 327.8300957 264.67768305 324.41094756 267.41794205 320.75726891 C271.14153673 318.12884913 274.06606899 317.74725275 278.54294205 318.25726891 C282.02354102 319.16228125 285.36863687 320.38400168 288.7421608 321.62445641 C289.73125946 321.97807243 290.72035812 322.33168846 291.73942947 322.69602013 C294.90692707 323.83110619 298.06868337 324.98130647 301.23044205 326.13226891 C303.2736947 326.86766477 305.31731212 327.602048 307.36130142 328.33539391 C308.37721863 328.70120064 309.39313583 329.06700737 310.43983841 329.44389915 C312.53881526 330.19732134 314.63953915 330.94589189 316.74187088 331.68990135 C322.29267339 333.66652961 327.76294448 335.74397997 333.19406509 338.03046227 C351.16821661 345.3853677 366.75423868 346.63865233 385.84207535 346.11878014 C388.74447505 346.05225732 391.64627805 346.03652897 394.54933453 346.02178478 C398.04620446 346.00155291 401.54250264 345.95284243 405.0390358 345.90180016 C406.32531372 345.88591347 407.61159164 345.87002678 408.93684769 345.85365868 C410.72271034 345.80558319 410.72271034 345.80558319 412.54465103 345.75653648 C414.10674553 345.72128616 414.10674553 345.72128616 415.70039749 345.68532372 C419.81595145 345.0655682 422.40825714 343.53495038 425.1644085 340.43146014 C426.74169052 337.94380742 426.91634907 336.66767507 426.91208553 333.75141335 C426.92104445 332.3961945 426.92104445 332.3961945 426.93018436 331.01359749 C426.91707737 329.53153753 426.91707737 329.53153753 426.9037056 328.01953697 C426.90755768 326.44401306 426.90755768 326.44401306 426.91148758 324.83666039 C426.9164658 321.29474334 426.8998624 317.75324883 426.88351822 314.21137047 C426.88259954 311.63772025 426.88299912 309.06406927 426.88461399 306.49041939 C426.88620969 300.28611746 426.87235084 294.08194567 426.85311 287.87767719 C426.83152204 280.70195808 426.82912642 273.5262846 426.82675552 266.35053062 C426.81100025 247.40275607 426.76911696 228.45501054 426.73044205 209.50726891 C426.63762955 146.02351891 426.63762955 146.02351891 426.54294205 81.25726891 C282.66294205 81.25726891 138.78294205 81.25726891 -9.45705795 81.25726891 Z M293.54294205 346.25726891 C295.51143675 353.9133237 297.87486867 361.33619124 300.5702858 368.76508141 C301.14858139 370.37457916 301.14858139 370.37457916 301.73855972 372.01659203 C302.98176438 375.47330627 304.23097377 378.92781436 305.48044205 382.38226891 C306.33728861 384.76065304 307.19381365 387.13915304 308.05002213 389.51776695 C310.54113102 396.43330205 313.04031869 403.3458933 315.54294205 410.25726891 C315.89445328 411.22807396 316.24596451 412.19887901 316.60812759 413.1991024 C320.23904897 423.22361236 323.8818516 433.24373407 327.54294205 443.25726891 C330.76169026 443.59214733 330.76169026 443.59214733 333.1718483 440.88617516 C334.15735658 439.87140751 335.13495854 438.84891502 336.10544205 437.81976891 C342.54302939 431.09681263 342.54302939 431.09681263 347.85495377 430.44281578 C354.73707536 430.54571104 358.53304816 435.04266026 363.06152725 439.64288902 C364.22515392 440.85757148 365.38821685 442.07279419 366.55075455 443.28851891 C367.7673725 444.52380635 368.98623095 445.75689079 370.20721817 446.98785973 C373.40266357 450.22134324 376.56693178 453.48371613 379.7254982 456.75317955 C382.95874423 460.08903605 386.22076913 463.39648627 389.48044205 466.70648766 C395.86299262 473.19603169 402.21294634 479.71648047 408.54294205 486.25726891 C412.26007941 484.51966744 414.63035217 482.40050012 417.52731705 479.46820641 C417.9877742 479.00491936 418.44823135 478.54163231 418.92264175 478.06430626 C420.38419283 476.59160992 421.83861373 475.11209488 423.29294205 473.63226891 C424.28596816 472.62920569 425.27945294 471.62659634 426.2734108 470.62445641 C428.70192145 468.17396055 431.1240888 465.71730221 433.54294205 463.25726891 C428.73455681 457.40777786 423.46893294 452.08990696 418.08028793 446.78058052 C416.49663488 445.21920587 414.91719713 443.65367828 413.33890152 442.08688927 C408.85617577 437.63753279 404.36915853 433.19257274 399.87204361 428.75775719 C397.10950724 426.03290379 394.35436713 423.30075626 391.60380173 420.56382179 C390.5587967 419.52685029 389.51102547 418.49265847 388.46041489 417.46136665 C386.99363411 416.02112152 385.53644688 414.57177514 384.08102798 413.12006187 C383.25085159 412.29956352 382.4206752 411.47906517 381.56534195 410.63370323 C378.60118111 407.15064651 377.56643808 404.50255856 377.48044205 399.94476891 C378.95501113 394.8271468 381.91361566 392.03412889 385.54294205 388.25726891 C386.6977744 386.93172221 387.84436348 385.59892359 388.98044205 384.25726891 C389.82606705 383.26726891 390.67169205 382.27726891 391.54294205 381.25726891 C382.99309559 377.54144845 374.31005983 374.33603881 365.5050087 371.29349327 C353.55040267 367.16127647 341.62740524 362.94533481 329.73825455 358.62836266 C328.665961 358.23909599 327.59366745 357.84982933 326.48888016 357.44876671 C321.17590348 355.51845713 315.86487053 353.58292338 310.55539322 351.64301109 C308.60985973 350.93493967 306.66430418 350.22692885 304.7187233 349.51898766 C303.36818359 349.02307373 303.36818359 349.02307373 301.99036026 348.51714134 C301.16764633 348.21828529 300.3449324 347.91942924 299.49728775 347.61151695 C298.7783786 347.34872444 298.05946945 347.08593193 297.31877518 346.81517601 C295.53516813 346.15736124 295.53516813 346.15736124 293.54294205 346.25726891 Z " fill="#F0EDED" transform="translate(41.45705795288086,-0.25726890563964844)"/>
<path d="M0 0 C0.95250971 -0.00467997 1.90501943 -0.00935994 2.88639307 -0.01418173 C6.06840724 -0.02611869 9.2499897 -0.01667941 12.43200684 -0.00723267 C14.71722159 -0.01129893 17.00243437 -0.01664112 19.28764343 -0.02316284 C25.48796347 -0.03683558 31.6881337 -0.03153786 37.88845634 -0.02202559 C44.37811562 -0.01442884 50.86776209 -0.02147465 57.35742188 -0.02618408 C68.95351808 -0.03199112 80.54954594 -0.02266976 92.14563137 -0.00740607 C102.65307022 0.00599662 113.16040963 0.00366837 123.66784668 -0.01016235 C135.87896312 -0.02622814 148.09000876 -0.03218697 160.30113554 -0.02332556 C166.76176052 -0.01864915 173.22231704 -0.01802341 179.68293762 -0.02793503 C185.75686268 -0.03660253 191.83059999 -0.03058647 197.90450478 -0.01325226 C200.13334657 -0.0092863 202.36220416 -0.01042331 204.59103966 -0.01704025 C207.63406705 -0.02524127 210.67649329 -0.01495114 213.71948242 0 C215.04162176 -0.01003825 215.04162176 -0.01003825 216.39047098 -0.02027929 C221.79357817 0.0311907 225.56959937 0.82688485 230.35974121 3.38095093 C234.13666372 7.56775166 233.79807573 12.1319725 233.77966309 17.48226929 C233.78813263 18.3901973 233.79660217 19.29812531 233.80532837 20.23356628 C233.82869297 23.22945227 233.82972068 26.22482454 233.82849121 29.22079468 C233.83559288 31.30678004 233.84329189 33.39276345 233.8515625 35.47874451 C233.86500592 39.84911531 233.86657656 44.21930547 233.86071777 48.58969116 C233.85482054 54.1864688 233.88541533 59.78237932 233.92583466 65.37898922 C233.9517002 69.68646402 233.95459011 73.99372968 233.95094299 78.30127144 C233.95263517 80.36452985 233.96228704 82.42779783 233.98008728 84.49098015 C234.00225512 87.37798783 233.99258618 90.26323571 233.97497559 93.15023804 C233.98823883 93.99978058 234.00150208 94.84932312 234.01516724 95.72460938 C233.95583201 99.91691227 233.62769152 102.57467959 230.94628906 105.89537048 C226.5690209 110.10176942 222.88286023 109.52685442 217.07951355 109.52139282 C216.10536352 109.52436394 215.13121348 109.52733507 214.12754375 109.53039622 C210.84254828 109.53911189 207.55758914 109.54059389 204.27258301 109.54208374 C201.92574993 109.54670988 199.57891762 109.55173426 197.23208618 109.55712891 C190.17462179 109.57164639 183.1171652 109.57763975 176.05968854 109.58252442 C172.73751805 109.58510067 169.41534907 109.58891873 166.0931797 109.59264374 C155.051904 109.60483791 144.01063025 109.61513675 132.96934795 109.61851883 C132.26241692 109.6187384 131.55548588 109.61895796 130.82713269 109.61918418 C130.11849362 109.61940246 129.40985455 109.61962074 128.67974156 109.61984563 C127.24372907 109.6202891 125.80771659 109.62073566 124.3717041 109.6211853 C123.65938973 109.62140673 122.94707535 109.62162816 122.21317569 109.6218563 C110.67066851 109.62580445 99.12822446 109.64325831 87.58574166 109.66654482 C75.73973168 109.69025108 63.89375339 109.70272036 52.0477193 109.70388675 C45.39481066 109.70480395 38.7419747 109.71088514 32.08908653 109.72870636 C25.83222281 109.74514009 19.57551541 109.74736539 13.31863785 109.73856735 C11.01961283 109.73779446 8.72057958 109.7421727 6.42157555 109.7520256 C3.28783549 109.76467035 0.15465539 109.75890883 -2.9790802 109.7484436 C-4.35009249 109.76052821 -4.35009249 109.76052821 -5.74880201 109.77285695 C-10.49234527 109.73569905 -13.87290024 109.60004049 -17.64025879 106.38095093 C-19.44299608 103.68770449 -19.8913144 101.57254927 -19.9009552 98.36497498 C-19.90804001 97.57577164 -19.91512482 96.7865683 -19.92242432 95.97344971 C-19.91870819 94.68835007 -19.91870819 94.68835007 -19.91491699 93.37728882 C-19.92002792 92.46790054 -19.92513885 91.55851227 -19.93040466 90.62156677 C-19.94430457 87.61551329 -19.94334361 84.60968897 -19.94104004 81.60360718 C-19.94492668 79.51379816 -19.94926129 77.42398994 -19.95402527 75.33418274 C-19.96148829 70.95366861 -19.96119554 66.57323508 -19.95593262 62.19271851 C-19.95013722 56.57921534 -19.96707042 50.96604204 -19.99027729 45.35259342 C-20.00500887 41.03660656 -20.00588712 36.72069925 -20.00276756 32.4046917 C-20.00328104 30.33504012 -20.00852374 28.26538412 -20.01857948 26.19575691 C-20.03091555 23.30162236 -20.02416912 20.40813181 -20.01257324 17.51400757 C-20.02403885 16.23194427 -20.02403885 16.23194427 -20.03573608 14.92398071 C-19.99493369 10.31676615 -19.86906096 6.95123899 -16.64025879 3.38095093 C-10.97724568 0.36189555 -6.34900184 -0.04820434 0 0 Z M1.35974121 22.38095093 C1.35974121 44.16095093 1.35974121 65.94095093 1.35974121 88.38095093 C70.98974121 88.38095093 140.61974121 88.38095093 212.35974121 88.38095093 C212.35974121 66.60095093 212.35974121 44.82095093 212.35974121 22.38095093 C142.72974121 22.38095093 73.09974121 22.38095093 1.35974121 22.38095093 Z " fill="#F0EDED" transform="translate(209.6402587890625,181.61904907226563)"/>
<path d="M0 0 C0.8284544 -0.00384115 1.65690881 -0.00768229 2.51046789 -0.01163983 C3.42047351 -0.01077335 4.33047913 -0.00990687 5.26806068 -0.00901413 C6.71831672 -0.01347081 6.71831672 -0.01347081 8.19787085 -0.01801753 C11.45212126 -0.02672025 14.70633495 -0.0282141 17.96059608 -0.02970505 C20.28787248 -0.03433206 22.61514812 -0.03935656 24.94242287 -0.04475021 C31.27502332 -0.05788632 37.60761317 -0.06432138 43.94022512 -0.06876087 C47.89367854 -0.07168926 51.84712903 -0.07579359 55.80058098 -0.08026505 C66.74496198 -0.0923747 77.68934045 -0.10275682 88.63372803 -0.10614014 C89.68441907 -0.10646949 89.68441907 -0.10646949 90.75633619 -0.10680549 C91.8095478 -0.10713291 91.8095478 -0.10713291 92.88403642 -0.10746694 C94.30685449 -0.1079104 95.72967255 -0.10835697 97.15249062 -0.10880661 C97.85825826 -0.10902804 98.5640259 -0.10924947 99.29118045 -0.10947761 C110.73015988 -0.11342663 122.16907565 -0.13088412 133.60803048 -0.15416613 C145.350111 -0.17787239 157.09215956 -0.19034164 168.8342644 -0.19150805 C175.4279196 -0.19255792 182.021485 -0.19850442 188.61511803 -0.21632767 C194.81536191 -0.23276133 201.01544802 -0.23498674 207.21570587 -0.22618866 C209.49376853 -0.2254158 211.7718395 -0.22979363 214.04988098 -0.23964691 C217.15510534 -0.25229242 220.25976465 -0.24652977 223.36498451 -0.23606491 C224.27052869 -0.24412132 225.17607287 -0.25217772 226.10905778 -0.26047826 C231.94683532 -0.21433284 235.27832827 0.75743435 239.72670937 4.71980667 C241.67664842 8.5844732 241.41130194 12.44798144 241.41225624 16.71736526 C241.41986977 17.65190536 241.42748329 18.58644547 241.43532753 19.54930496 C241.44612324 21.52456875 241.44898379 23.4998896 241.4444828 25.47517776 C241.4435118 28.48917384 241.4851112 31.50061256 241.52944374 34.51424026 C241.53465201 36.43610997 241.53733891 38.3579885 241.53725624 40.27986526 C241.5536515 41.17692184 241.57004677 42.07397842 241.58693886 42.99821854 C241.53924861 47.34179909 241.3193346 50.23633754 238.53139687 53.68465042 C234.14290776 57.83384267 230.44995532 57.28220079 224.67000771 57.28532791 C223.69656324 57.28971017 222.72311877 57.29409242 221.72017598 57.29860747 C218.43752115 57.31203002 215.15489319 57.31818207 211.87221718 57.32429886 C209.52700617 57.33219707 207.18179639 57.34046584 204.83658791 57.34907913 C197.11703088 57.37533056 189.39746834 57.39060933 181.67788124 57.40486526 C179.02388187 57.41022356 176.36988254 57.41560106 173.71588326 57.42099762 C162.67890281 57.44282973 151.64192196 57.46151991 140.60492516 57.47262001 C137.74008365 57.47554976 134.87524219 57.47851142 132.01040077 57.48152542 C131.29834871 57.48227147 130.58629664 57.48301752 129.85266724 57.48378618 C118.31725593 57.49644042 106.78199874 57.52966379 95.24665949 57.57132725 C83.40629622 57.61374218 71.56601187 57.63731453 59.72557282 57.64254057 C53.07648178 57.64595524 46.42760443 57.65828301 39.77858162 57.69064331 C33.52410335 57.72064654 27.27004537 57.72706317 21.01551056 57.71525955 C18.71850648 57.71503817 16.42148334 57.72339598 14.12454605 57.74091339 C10.9908341 57.76351357 7.85865794 57.75535162 4.72493935 57.73942947 C3.35829631 57.76025261 3.35829631 57.76025261 1.96404433 57.78149641 C-2.35058216 57.72740298 -5.17964085 57.48127723 -8.60533333 54.71842766 C-11.58692651 51.57159926 -12.17684237 50.23296041 -12.24936485 46.0523262 C-12.26542778 45.21095108 -12.28149071 44.36957596 -12.29804039 43.50270462 C-12.34254957 39.64799698 -12.38356777 35.79346138 -12.40659142 31.93855667 C-12.42313559 29.90751551 -12.45040526 27.8765322 -12.48862267 25.84578323 C-12.54349494 22.91464971 -12.56528246 19.98488132 -12.57993126 17.05330276 C-12.60260063 16.14997208 -12.62527 15.24664139 -12.64862633 14.31593704 C-12.6341931 9.99117171 -12.45386228 7.03697613 -9.71127892 3.57381058 C-6.45331181 0.57650481 -4.26846082 0.00743 0 0 Z M8.94350624 22.13142776 C8.94350624 26.75142776 8.94350624 31.37142776 8.94350624 36.13142776 C78.57350624 36.13142776 148.20350624 36.13142776 219.94350624 36.13142776 C219.94350624 31.51142776 219.94350624 26.89142776 219.94350624 22.13142776 C150.31350624 22.13142776 80.68350624 22.13142776 8.94350624 22.13142776 Z " fill="#F0ECEC" transform="translate(202.05649375915527,110.86857223510742)"/>
<path d="M0 0 C0.89671417 -0.00511093 1.79342834 -0.01022186 2.71731567 -0.01548767 C5.67041772 -0.02934496 8.62328539 -0.02842988 11.57641602 -0.02612305 C13.63615505 -0.03001193 15.69589329 -0.034347 17.75563049 -0.03910828 C22.06872154 -0.04656206 26.38173071 -0.04628517 30.69482422 -0.04101562 C36.21391073 -0.0352204 41.73266172 -0.0521575 47.25169277 -0.0753603 C51.50427704 -0.09011218 55.75678074 -0.09096738 60.00938606 -0.08785057 C62.04389168 -0.08836299 64.07840189 -0.09358583 66.11288261 -0.10366249 C68.96089185 -0.11603845 71.80825069 -0.10922829 74.65625 -0.09765625 C75.49127548 -0.10529999 76.32630096 -0.11294373 77.18663025 -0.12081909 C83.20731195 -0.06691652 88.07486516 0.91121031 92.83032227 4.8996582 C94.514352 8.66395997 94.68476992 12.23572519 93.89282227 16.2746582 C91.71123081 19.03035267 90.02104733 20.71054567 86.89282227 22.2746582 C83.83762052 22.38391288 80.80486762 22.43200104 77.74902344 22.43579102 C76.32685768 22.44323837 76.32685768 22.44323837 74.8759613 22.45083618 C71.72923057 22.46547997 68.58255027 22.47226372 65.43579102 22.4777832 C63.25344338 22.48353311 61.07109576 22.48929086 58.88874817 22.49505615 C54.30799117 22.50557265 49.72725175 22.51141098 45.14648438 22.51489258 C39.27511961 22.5203767 33.40398683 22.54440039 27.53269482 22.57286453 C23.02284567 22.59148375 18.51305245 22.59669615 14.00316811 22.59822845 C11.83861333 22.60125745 9.6740596 22.60929424 7.50954247 22.62241364 C4.48111688 22.63945788 1.4532587 22.63759764 -1.57519531 22.63110352 C-2.47044922 22.6403183 -3.36570312 22.64953308 -4.28808594 22.6590271 C-9.05678229 22.62697477 -12.24079359 22.38353271 -16.10717773 19.2746582 C-18.23455911 16.560413 -19.03627335 14.75073051 -19.54467773 11.3371582 C-18.97477294 7.34782463 -17.73503536 5.31744072 -15.10717773 2.2746582 C-10.07448532 0.02155379 -5.4036755 -0.01599326 0 0 Z " fill="#F0EDED" transform="translate(76.107177734375,181.725341796875)"/>
<path d="M0 0 C0.8144458 -0.00708481 1.6288916 -0.01416962 2.46801758 -0.02146912 C3.35280289 -0.0189917 4.2375882 -0.01651428 5.14918518 -0.01396179 C6.55715866 -0.02162819 6.55715866 -0.02162819 7.99357605 -0.02944946 C11.09702425 -0.04335186 14.20025055 -0.04238822 17.3037262 -0.04008484 C19.46079593 -0.04397134 21.61786489 -0.04830592 23.77493286 -0.05307007 C28.29668152 -0.06053362 32.81835211 -0.06023995 37.34010315 -0.05497742 C43.13520477 -0.04918191 48.92998688 -0.06611526 54.72503567 -0.08932209 C59.17999135 -0.10405212 63.63486994 -0.10493213 68.08984566 -0.10181236 C70.22648311 -0.10232592 72.36312484 -0.10757004 74.49973869 -0.11762428 C77.48726558 -0.12995733 80.47416832 -0.12321567 83.46168518 -0.11161804 C84.7858268 -0.12308365 84.7858268 -0.12308365 86.13671875 -0.13478088 C91.94989486 -0.08488837 95.32773737 0.89363892 99.68263245 4.94819641 C101.44079926 8.37199495 101.64579051 11.55319319 100.87013245 15.26069641 C98.89335068 18.78254897 96.77141755 20.96026804 92.87013245 22.26069641 C89.84343122 22.36790555 86.83942167 22.41797272 83.81227112 22.42182922 C82.88512802 22.42679413 81.95798492 22.43175903 81.00274658 22.43687439 C77.93119061 22.45149632 74.85968628 22.45829818 71.7881012 22.46382141 C69.65441893 22.46957297 67.52073668 22.4753307 65.38705444 22.48109436 C60.91062682 22.49160452 56.43421716 22.49744705 51.95777893 22.50093079 C46.22442237 22.50641463 40.49130341 22.53044038 34.75802135 22.55890274 C30.3493582 22.57753533 25.9407522 22.58273506 21.53205299 22.58426666 C19.41856398 22.58729245 17.30507596 22.59531849 15.1916256 22.60845184 C12.23295952 22.62552459 9.27487285 22.62362893 6.31617737 22.61714172 C5.44479126 22.62635651 4.57340515 22.63557129 3.6756134 22.64506531 C-1.33851031 22.6106617 -4.78759772 22.04850512 -9.12986755 19.26069641 C-11.32784226 16.54986095 -12.05384632 14.77112469 -12.56736755 11.32319641 C-12.00659252 7.39777114 -10.62697806 5.31272036 -8.12986755 2.26069641 C-5.34164721 0.54914177 -3.25155286 0.00946636 0 0 Z " fill="#F0ECEC" transform="translate(69.12986755371094,110.73930358886719)"/>
<path d="M0 0 C1.14984375 -0.01160156 2.2996875 -0.02320312 3.484375 -0.03515625 C9.71890744 -0.01360833 14.56640844 0.19031161 20 3.375 C22.47814609 6.78245087 23 8.72556907 23 12.9375 C21.81383817 17.01493129 20.23715865 18.69052698 17 21.375 C12.72521354 23.51239323 7.05262781 22.60197829 2.30639648 22.61523438 C0.20581089 22.62491561 -1.89378575 22.65592684 -3.99414062 22.6875 C-5.3359317 22.69403286 -6.67772977 22.69928222 -8.01953125 22.703125 C-9.84641479 22.71714355 -9.84641479 22.71714355 -11.71020508 22.73144531 C-16.11356973 22.25434606 -18.66835706 20.66072422 -21.8125 17.625 C-23.52868326 14.37328436 -23.38162088 12.00039838 -23 8.375 C-21.63273617 4.83619951 -20.48414947 3.65377313 -17.19140625 1.7578125 C-11.68977305 -0.47840402 -5.84257215 -0.05894972 0 0 Z " fill="#F1EDED" transform="translate(63,28.625)"/>
<path d="M0 0 C1.66579102 -0.00483398 1.66579102 -0.00483398 3.36523438 -0.00976562 C15.36337106 0.06921672 15.36337106 0.06921672 20.75 4 C23.06332909 7.17011764 23.37013528 9.40534626 23.4375 13.3125 C22.22376419 16.81884789 21.22066895 18.7228507 18.25 20.95947266 C14.81937961 22.60986312 12.36192458 22.70021332 8.5625 22.7109375 C6.59023437 22.71673828 6.59023437 22.71673828 4.578125 22.72265625 C3.5581543 22.71322998 3.5581543 22.71322998 2.51757812 22.70361328 C0.44334108 22.68754525 -1.62894796 22.70348732 -3.703125 22.72265625 C-5.01796875 22.71878906 -6.3328125 22.71492188 -7.6875 22.7109375 C-8.88632813 22.70755371 -10.08515625 22.70416992 -11.3203125 22.70068359 C-15.67583315 22.17920183 -18.25802278 20.57199525 -21.375 17.5625 C-23.09118326 14.31078436 -22.94412088 11.93789838 -22.5625 8.3125 C-21.1889316 4.7573818 -20.04154414 3.58633377 -16.7265625 1.69140625 C-11.35450116 -0.49409808 -5.70583483 -0.08307855 0 0 Z " fill="#F1EDED" transform="translate(192.5625,28.6875)"/>
<path d="M0 0 C1.66579102 -0.00483398 1.66579102 -0.00483398 3.36523438 -0.00976562 C15.36337106 0.06921672 15.36337106 0.06921672 20.75 4 C23.06332909 7.17011764 23.37013528 9.40534626 23.4375 13.3125 C22.22376419 16.81884789 21.22066895 18.7228507 18.25 20.95947266 C14.81937961 22.60986312 12.36192458 22.70021332 8.5625 22.7109375 C6.59023437 22.71673828 6.59023437 22.71673828 4.578125 22.72265625 C3.5581543 22.71322998 3.5581543 22.71322998 2.51757812 22.70361328 C0.44334108 22.68754525 -1.62894796 22.70348732 -3.703125 22.72265625 C-5.01796875 22.71878906 -6.3328125 22.71492188 -7.6875 22.7109375 C-8.88632813 22.70755371 -10.08515625 22.70416992 -11.3203125 22.70068359 C-15.67583315 22.17920183 -18.25802278 20.57199525 -21.375 17.5625 C-23.09118326 14.31078436 -22.94412088 11.93789838 -22.5625 8.3125 C-21.1889316 4.7573818 -20.04154414 3.58633377 -16.7265625 1.69140625 C-11.35450116 -0.49409808 -5.70583483 -0.08307855 0 0 Z " fill="#F1EDED" transform="translate(127.5625,28.6875)"/>
</svg>
